<?xml version="1.0" encoding="UTF-8" standalone="no"?>
<svg xmlns="http://www.w3.org/2000/svg" height="21.81" width="35.88" version="1.1" y="0px" x="0px" viewBox="0 0 35.880322 21.814603">
 <title>Extra Bold Torch No-Light</title>
 <desc>Created with Sketch.</desc>
 <g style="display:none" transform="translate(-108.1 3.86)" display="none">
  <g style="stroke-miterlimit:10;display:inline" stroke-miterlimit="10" display="inline">
   <line style="stroke-linejoin:round;stroke:#e6e7e8;stroke-width:3;stroke-miterlimit:10" y2="192" x2="192"/>
   <line style="stroke-linejoin:round;stroke:#e6e7e8;stroke-width:3;stroke-miterlimit:10" x1="192" x2="0" y2="192"/>
   <line style="stroke-linejoin:round;stroke:#e6e7e8;stroke-width:3;stroke-miterlimit:10" x1="192" y1="96" x2="0" y2="96"/>
   <line style="stroke-linejoin:round;stroke:#e6e7e8;stroke-width:3;stroke-miterlimit:10" x1="96" x2="96" y2="192"/>
   <path style="stroke-linejoin:round;stroke:#6d6e71;stroke-width:3;stroke-miterlimit:10" d="m172 159.6c0 6.869-5.568 12.44-12.44 12.44h-127.2c-6.83 0-12.4-5.6-12.4-12.4v-127.2c0-6.83 5.57-12.4 12.44-12.4h127.2c6.8 0 12.4 5.57 12.4 12.44z"/>
   <path style="stroke-linejoin:round;stroke:#6d6e71;stroke-width:3;stroke-miterlimit:10" d="m184 149.5c0 5.8-6.4 10.5-14.4 10.5h-147.2c-7.95 0-14.4-4.7-14.4-10.5v-107c0-5.81 6.45-10.5 14.4-10.5h147.2c7.953 0 14.4 4.688 14.4 10.47z"/>
   <path style="stroke-linejoin:round;stroke:#6d6e71;stroke-width:3;stroke-miterlimit:10" d="m149.5 8c5.8 0 10.5 6.45 10.5 14.4v147.2c0 7.953-4.688 14.4-10.47 14.4h-107c-5.81 0-10.5-6.4-10.5-14.4v-147.2c0.03-7.95 4.72-14.4 10.5-14.4z"/>
   <circle style="stroke-linejoin:round;stroke:#6d6e71;stroke-width:3;stroke-miterlimit:10" cx="96" r="88" cy="96"/>
  </g>
 </g>
 <g style="display:none" transform="translate(-108.1 3.86)" display="none">
  <g style="stroke-miterlimit:10;display:inline" stroke-miterlimit="10" display="inline">
   <path style="stroke-linejoin:round;stroke:#000;stroke-linecap:round;stroke-miterlimit:10;stroke-width:6;fill:none" d="m105.6 8h-19.19c-6.447 0-5.813 6.182-5.813 6.182v17.82h30.81v-17.82s0.635-6.182-5.812-6.182z"/>
   <path style="stroke-linejoin:round;stroke:#000;stroke-linecap:round;stroke-miterlimit:10;stroke-width:6;fill:none" d="m114.6 44.2c-4-3.72-3.2-12.2-3.2-12.2h-30.82s0.848 8.475-3.221 12.2c-4.07 3.73-21.36 11.87-21.36 31.7v86.62s0.304 21.48 13.48 21.48h53.03c13.18 0 13.49-21.48 13.49-21.48v-86.6c0-19.83-17.29-27.97-21.36-31.7z"/>
   <line style="stroke-linejoin:round;stroke:#000;stroke-linecap:round;stroke-miterlimit:10;stroke-width:6;fill:none" x1="74.96" y1="32" x2="117" y2="32"/>
  </g>
 </g>
 <g style="fill:#fff" transform="matrix(0 .5046 .5046 0 -13.96 -14.54)">
  <g style="fill:#fff;display:none" display="none">
   <g style="fill:#fff;display:inline" display="inline">
    <path style="fill:#fff" d="m88.75 32.93h-18.87c-0.689 0-1.25 0.56-1.25 1.251v4.274 0.013 9.057h-9.062-0.008-4.274c-0.688 0-1.25 0.56-1.25 1.251v13.34h-9.06c-0.005 0-0.009-0.002-0.014-0.002h-4.28c-0.259 0-0.5 0.08-0.7 0.214-0.333 0.229-0.552 0.607-0.552 1.04v4.272c0 0.008 0.002 0.017 0.002 0.021v9.049h-9.062c-0.001 0-0.004-0.002-0.006-0.002h-4.274c-0.086 0-0.172 0.01-0.254 0.027-0.571 0.115-1 0.621-1 1.225v4.275c0 0.01 0.003 0.02 0.003 0.027v9.043h-13.35c-0.691 0-1.251 0.559-1.251 1.25v4.272c0 0.692 0.56 1.252 1.251 1.252h18.87c0.691 0 1.251-0.56 1.251-1.252v-13.34h13.34c0.691 0 1.251-0.562 1.251-1.252v-13.34h13.34c0.691 0 1.252-0.561 1.252-1.252v-13.34h13.34c0.689 0 1.25-0.561 1.25-1.25v-13.34h13.34c0.691 0 1.252-0.56 1.252-1.251v-4.27c0.02-0.69-0.54-1.25-1.23-1.25z"/>
    <circle cx="35.9" cy="7.482" r="5.376" style="fill:#fff"/>
    <path style="fill:#fff" d="m38.36 20.56s0.855 5.598 0.906 5.825c0.057 0.254 0.146 0.704 0.278 0.931 0.133 0.228 4.764 8.167 4.764 8.167 1.197 3.001 5.112 1.441 3.908-1.558l-5.029-8.683-1.046-6.558c-0.553-3.246-2.484-4.678-4.663-4.711v-0.003h-6.026v0.009c-3.335 0.091-4.065 2.17-4.896 5.56l-3.909 15.93c-0.778 3.136 3.315 4.14 4.085 1.002l3.827-15.6 0.893-0.007-0.003 25.43-2.88 14.08c0 1.663 1.349 3.015 3.013 3.015 1.667 0 3.016-1.352 3.016-3.015l2.712-13.26c0.098-0.482 0.162-0.891 0.168-1.153 0.001-0.07 0.002-1.51 0.002-3.739l2.512 2.713 1.857 13.15c0.572 1.562 2.305 2.366 3.865 1.795 1.565-0.573 2.367-2.306 1.795-3.867l-1.898-13.1c-0.086-0.603-0.358-1.065-0.574-1.337-0.161-0.202-5.206-5.481-7.558-7.94 0-4.448 0-9.295-0.001-13.06z"/>
   </g>
  </g>
  <g style="fill:#fff;display:none" display="none">
   <path style="fill:#fff;display:inline" display="inline" d="m65.34 40.32c6.658 5.561 9.861 10.76 4.985 6.417-5.197-4.637-11.34-6.607-15.28-7.437-1.646-0.08-3.319-0.124-5.014-0.124-0.184 0-0.365 0.003-0.549 0.004 7.591 5.947 11.6 12.2 6.395 7.557-4.777-4.26-10.35-6.27-14.28-7.212-1.839 0.151-3.644 0.348-5.405 0.586 6.827 5.639 10.17 11.03 5.237 6.626-3.22-2.85-6.77-4.69-9.95-5.88-17.75 3.23-30.24 10.4-30.24 14.72 0 5.718 21.84 5.226 48.77 5.226 26.94 0 48.77 0.492 48.77-5.226 0.01-4.58-14.02-12.35-33.45-15.26z"/>
  </g>
  <g style="fill:#fff">
   <g style="fill:#fff;display:none" display="none">
    <path style="fill:#fff;display:inline" display="inline" d="m54.76 68.43c-1.473-1.475-2.033-2.627-2.205-3.443h7.989c1.487 0 2.694-1.209 2.694-2.695v-8.39l8.45-14.34-10.55-37.8h-21.6l-10.54 37.8 8.45 14.34v8.375c0 1.486 1.209 2.695 2.696 2.695h5.836c-0.125 1.562-0.254 5.844 1.843 7.938 2.204 2.205 7.301 4.957 6.715 9.646-0.587 4.689-5.062 4.988-7.547 4.324-3.247-0.873-4.854-4.268-5.716-6.889-1.107-3.371-3.004-5.35-4.981-5.057-1.978 0.293-1.539 2.197-1.246 4.104 0.293 1.904 0.8 4.322 1.026 7.256 0.292 3.809 3.662 12.01 13.56 12.01 9.893 0 16.27-6.082 16.27-14.43 0.001-8.353-9.268-13.59-11.14-15.46zm7.286-14.8 0.017 6.27-3.91 3.91h-8.45l15.42-15.42zm-22.62-47.08 3.6-3.607h8.443l-15.31 15.32zm-9.17 32.85 2.63-9.43 27.03-27.02h0.336l1.768 6.338-31.15 31.15zm6.867 11.66-3.129-5.313 29.86-29.86 1.842 6.602zm3.015 12.75c-0.84 0-1.523-0.684-1.523-1.523v-4.27l28.93-28.93 1.84 6.6-28.12 28.12z"/>
   </g>
   <g style="fill:#fff">
    <path style="fill:#fff" d="m54.86 68.73c-1.877-1.877-2.281-3.238-2.281-4.049h8.095c1.17 0 2.119-0.949 2.119-2.121v-8.42c0-0.045-0.01-0.088-0.013-0.131 0 0 8.457-19.69 8.457-26.36 0 0-10.94 4.697-20.81 4.697-10.28 0-20.81-4.696-20.81-4.696 0 6.013 8.458 26.36 8.458 26.36-0.004 0.043-0.014 0.086-0.014 0.131v8.422c0 1.172 0.949 2.121 2.12 2.121h5.91s-0.811 5.963 1.791 8.566c2.215 2.213 7.338 4.98 6.75 9.691-0.59 4.713-5.154 5.229-7.584 4.346-2.431-0.885-4.933-4.271-5.744-6.922-0.81-2.65-3.018-5.375-5.006-5.08s-1.547 2.209-1.25 4.121c0.293 1.916 0.803 4.346 1.029 7.291 0.293 3.828 3.682 12.08 13.62 12.08 9.939 0 16.34-6.111 16.34-14.51 0-8.392-9.315-13.66-11.19-15.54z"/>
   </g>
  </g>
  <g style="fill:#fff;display:none" display="none">
   <path style="fill:#fff;display:inline" display="inline" d="m76.85 39.44c-6.07-8.97-9.16-13.04-12.74-19.71-2.51-4.65-0.54-11.76 2.7-14.33 1.55-1.24 0.88-3.154-0.62-2.335-9.08 4.959-17.37 5.454-21.62 2.699-4.88-3.498-12.2-6.815-19.53-2.865-4.116 2.218-6.821 5.922-7.616 10.43-1.034 5.862 1.216 12.58 6.017 17.97 3.225 3.622 6.692 8.891 5.845 10.6-7.915 13.55-4.031 24.71 0.527 34.96 4.512 10.15 14.21 22.03 16.47 22.03h15.12c2.257 0 11.96-11.88 16.47-22.03 4.83-10.87 8.91-22.75-1.02-37.42zm-40.6-8.92c-1.819 0.466-5.609-1.308-7.756-3.719-3.385-3.802-5.073-8.514-4.406-12.3 0.439-2.495 1.839-4.394 4.16-5.646 7.108-3.833 17.59 5.276 16.73 7.754-0.367 1.057-0.584 1.591-1.408 3.123-2.88 5.36-5.686 10.36-7.322 10.78z"/>
  </g>
  <g style="fill:#fff;display:none" display="none">
   <path style="fill:#fff;display:inline" display="inline" d="m92.63 27.08c-2.218-0.235-24.93 1.24-27.38 1.757-2.454 0.517-4.521 1.034-5.426 1.55-0.904 0.517-7.621 4.263-8.654 4.909-1.034 0.646-1.421 1.68-1.552 2.455-0.129 0.775-0.784 5.684-0.65 6.459 0 0-0.448-0.23-0.77 0-0.323 0.228-0.393 0.938-0.393 0.938s-1.287 0.096-1.803 0.225c-0.517 0.129-0.646 0.904-1.034 1.163-0.387 0.258-1.292 0.387-1.938 0.646-0.646 0.258-1.55 0.774-1.938 1.033-0.387 0.259-1.55 0.388-1.55 0.388s-1.809 0-1.809 0.487c0 0.488 0.13 5.514 0.065 5.938-0.065 0.422 2.131 0.422 2.131 0.422l-1.098 1.098h-3.165v-0.71s0.452 0.144 0.452-0.482v-16.15c0-0.417-0.388-0.417-0.388-0.417s-0.064-7.041-0.064-7.493 0.216-1.228 0.387-1.55c0.291-0.546 1.163-1.356 1.163-1.808 0-0.453-0.258-1.873-0.904-1.873s-1.568 1.6-1.938 2.067c-0.742 0.938-0.904 1.808-0.904 2.389v7.686s-7.686 0.324-8.267 0.324-1.486 0.258-1.873 0.645c-0.387 0.388-0.869 0.794-0.676 0.794 0.194 0 0.805-0.019 0.805-0.019l-1.77 5.54s-17.83 1.745-18.34 1.887c0 0-1.033 0-1.033 1.163v11.32c0 0.094-0.634 0.016-0.634 0.107v5.419h2.314l0.001-0.63 0.311-0.03c0.67 2.549 2.989 4.427 5.747 4.427 2.757 0 5.076-1.878 5.746-4.427l5.332-0.051-0.041 1.162 12.08-0.042v-1.84s1.938 2.066 3.1 2.066 1.292-0.774 1.292-0.774h18.6s1.033-0.388 1.033-1.163v-0.947l2.842 0.071c0 3.282 2.659 5.941 5.941 5.941 3.281 0 5.942-2.659 5.942-5.941h1.938c0 3.282 2.66 5.941 5.941 5.941 3.282 0 5.943-2.659 5.943-5.941 0-1.378-0.471-2.645-1.257-3.652l1.019 0.732 3.725-0.079v-1.55l-3.59-2.51s11.95-14.88 12.66-17.89c0.558-2.354-3.462-10.95-5.682-11.19zm-59.45 18.92h-7.125c-1.486 0-1.873 0-1.5-0.931 0.084-0.21 0.983-2.944 1.272-3.494 0.292-0.549 1.13-0.42 1.13-0.42l6.222-0.014v4.859zm14.67 5.199v1.422s-0.194-0.098-0.292 0c-0.097 0.096-0.322 0.16-0.403 0.403-0.081 0.242-0.436 1.178-0.598 1.211-0.162 0.031-3.359 0-3.359 0s0.389-0.607 0.452-1.066c0.089-0.644 0.032-1.292-0.388-1.747-0.186-0.201-0.807-0.771-0.807-0.771s1.808-0.388 2.099-0.55c0.291-0.161 0.581-0.096 0.839 0 0.259 0.097 0.743 0.324 1.001 0.356s0.678-0.131 0.904-0.13c0.226 0 0.388-0.001 0.549 0 0.164 0 0.003 0.872 0.003 0.872z"/>
  </g>
 </g>
</svg>
