<?xml version="1.0" encoding="UTF-8" standalone="no"?>
<svg xmlns="http://www.w3.org/2000/svg" height="21.81" width="39.24" version="1.1" y="0px" x="0px" viewBox="0 0 39.23647 21.814604">
 <title>Extra Bold Torch No-Light</title>
 <desc>Created with Sketch.</desc>
 <g style="display:none" transform="translate(-76.57 -70.44)" display="none">
  <g style="stroke-miterlimit:10;display:inline" stroke-miterlimit="10" display="inline">
   <line style="stroke-linejoin:round;stroke:#e6e7e8;stroke-width:3;stroke-miterlimit:10" y2="192" x2="192"/>
   <line style="stroke-linejoin:round;stroke:#e6e7e8;stroke-width:3;stroke-miterlimit:10" y2="192" x2="0" x1="192"/>
   <line style="stroke-linejoin:round;stroke:#e6e7e8;stroke-width:3;stroke-miterlimit:10" y2="96" x2="0" y1="96" x1="192"/>
   <line style="stroke-linejoin:round;stroke:#e6e7e8;stroke-width:3;stroke-miterlimit:10" y2="192" x2="96" x1="96"/>
   <path style="stroke-linejoin:round;stroke:#6d6e71;stroke-width:3;stroke-miterlimit:10" d="m172 159.6c0 6.869-5.568 12.44-12.44 12.44h-127.2c-6.83 0-12.4-5.6-12.4-12.4v-127.2c0-6.83 5.57-12.4 12.44-12.4h127.2c6.8 0 12.4 5.57 12.4 12.44z"/>
   <path style="stroke-linejoin:round;stroke:#6d6e71;stroke-width:3;stroke-miterlimit:10" d="m184 149.5c0 5.8-6.4 10.5-14.4 10.5h-147.2c-7.95 0-14.4-4.7-14.4-10.5v-107c0-5.81 6.45-10.5 14.4-10.5h147.2c7.953 0 14.4 4.688 14.4 10.47z"/>
   <path style="stroke-linejoin:round;stroke:#6d6e71;stroke-width:3;stroke-miterlimit:10" d="m149.5 8c5.8 0 10.5 6.45 10.5 14.4v147.2c0 7.953-4.688 14.4-10.47 14.4h-107c-5.81 0-10.5-6.4-10.5-14.4v-147.2c0.06-7.95 4.75-14.4 10.53-14.4z"/>
   <circle style="stroke-linejoin:round;stroke:#6d6e71;stroke-width:3;stroke-miterlimit:10" cx="96" r="88" cy="96"/>
  </g>
 </g>
 <g style="display:none" transform="translate(-76.57 -70.44)" display="none">
  <g style="stroke-miterlimit:10;display:inline" stroke-miterlimit="10" display="inline">
   <path style="stroke-linejoin:round;stroke:#000;stroke-linecap:round;stroke-miterlimit:10;stroke-width:6;fill:none" d="m105.6 8h-19.19c-6.447 0-5.813 6.182-5.813 6.182v17.82h30.81v-17.82s0.635-6.182-5.812-6.182z"/>
   <path style="stroke-linejoin:round;stroke:#000;stroke-linecap:round;stroke-miterlimit:10;stroke-width:6;fill:none" d="m114.6 44.2c-4-3.72-3.2-12.2-3.2-12.2h-30.82s0.848 8.475-3.221 12.2c-4.07 3.73-21.36 11.87-21.36 31.7v86.62s0.304 21.48 13.48 21.48h53.03c13.18 0 13.49-21.48 13.49-21.48v-86.6c0-19.83-17.29-27.97-21.36-31.7z"/>
   <line style="stroke-linejoin:round;stroke:#000;stroke-linecap:round;stroke-miterlimit:10;stroke-width:6;fill:none" y2="32" x2="117" y1="32" x1="74.96"/>
  </g>
 </g>
 <g style="fill:#fff" transform="matrix(.2423 .2423 -.2423 .2423 21.48 -12.12)">
  <path style="fill:#fff" d="m61.2 24c1.7 0 3-1.3 3-3v-15c0-1.7-1.3-3-3-3s-3 1.3-3 3v15c0 1.7 1.4 3 3 3z"/>
  <path style="fill:#fff" d="m58.2 60c0 1.7 1.3 3 3 3s3-1.3 3-3v-13c0-1.7-1.3-3-3-3s-3 1.3-3 3z"/>
  <path style="fill:#fff" d="m90.2 33h-15c-1.7 0-3 1.3-3 3s1.3 3 3 3h15c1.7 0 3-1.3 3-3s-1.3-3-3-3z"/>
  <path style="fill:#fff" d="m36.2 33c-1.7 0-3 1.3-3 3s1.3 3 3 3h13c1.7 0 3-1.3 3-3s-1.3-3-3-3z"/>
  <path style="fill:#fff" d="m74.4 25.9 10.3-10.3c1.2-1.2 1.2-3.1 0-4.2-1.2-1.2-3.1-1.2-4.2 0l-10.3 10.2c-1.2 1.2-1.2 3.1 0 4.2 0.6 0.6 1.4 0.9 2.1 0.9s1.6-0.2 2.1-0.8z"/>
  <path style="fill:#fff" d="m3.7 92.4c0.5 0.6 1.3 0.9 2.1 0.9s1.5-0.3 2.1-0.9l47.9-47.9c1.2-1.2 1.2-3.1 0-4.2-1.2-1.2-3.1-1.2-4.2 0l-47.9 47.9c-1.2 1.1-1.2 3 0 4.2z"/>
  <path style="fill:#fff" d="m73.4 40.2c-1.2-1.2-3.1-1.2-4.2 0-1.2 1.2-1.2 3.1 0 4.2l10.3 10.3c0.6 0.6 1.4 0.9 2.1 0.9s1.5-0.3 2.1-0.9c1.2-1.2 1.2-3.1 0-4.2z"/>
  <path style="fill:#fff" d="m54.9 25.9c1.2-1.2 1.2-3.1 0-4.2l-10.3-10.4c-1.2-1.2-3.1-1.2-4.2 0-1.2 1.2-1.2 3.1 0 4.2l10.3 10.3c0.6 0.6 1.4 0.9 2.1 0.9s1.5-0.2 2.1-0.8z"/>
 </g>
</svg>
