<?xml version="1.0" encoding="UTF-8" standalone="no"?>
<svg xmlns="http://www.w3.org/2000/svg" height="22.81" width="46.67" version="1.1" y="0px" x="0px" viewBox="0 0 46.666668 22.814816">
 <title>Extra Bold Torch No-Light</title>
 <desc>Created with Sketch.</desc>
 <g style="fill:#fff;fill-rule:evenodd" transform="matrix(.6914 0 0 .6914 -11.06 -23.51)">
  <path d="m19 43.5c-1.657 0-3 3.134-3 7s1.343 7 3 7h45s10.39 8.319 10.59 8.5c0.72 0.65 1.53 1 2.41 1 4.04 0 6.5-7.39 6.5-16.5s-2.46-16.5-6.5-16.5c-0.89 0-1.7 0.36-2.43 1.02-0.2 0.17-10.57 8.48-10.57 8.48zm61 7c0-6.35-1.12-11.5-2.5-11.5s-2.5 5.15-2.5 11.5 1.12 11.5 2.5 11.5 2.5-5.15 2.5-11.5z" style="fill:#fff"/>
 </g>
</svg>
