<?xml version="1.0" encoding="UTF-8" standalone="no"?>
<svg xmlns="http://www.w3.org/2000/svg" height="21.81" width="51.7" version="1.1" y="0px" x="0px" viewBox="0 0 51.695178 21.814603">
 <title>Extra Bold Torch No-Light</title>
 <desc>Created with Sketch.</desc>
 <g style="display:none" transform="translate(-2.365 -55.58)" display="none">
  <g style="stroke-miterlimit:10;display:inline" stroke-miterlimit="10" display="inline">
   <line style="stroke-linejoin:round;stroke:#e6e7e8;stroke-width:3;stroke-miterlimit:10" y2="192" x2="192"/>
   <line style="stroke-linejoin:round;stroke:#e6e7e8;stroke-width:3;stroke-miterlimit:10" x1="192" x2="0" y2="192"/>
   <line style="stroke-linejoin:round;stroke:#e6e7e8;stroke-width:3;stroke-miterlimit:10" x1="192" y1="96" x2="0" y2="96"/>
   <line style="stroke-linejoin:round;stroke:#e6e7e8;stroke-width:3;stroke-miterlimit:10" x1="96" x2="96" y2="192"/>
   <path style="stroke-linejoin:round;stroke:#6d6e71;stroke-width:3;stroke-miterlimit:10" d="m172 159.6c0 6.869-5.568 12.44-12.44 12.44h-127.2c-6.83 0-12.4-5.6-12.4-12.4v-127.2c0-6.83 5.57-12.4 12.44-12.4h127.2c6.8 0 12.4 5.57 12.4 12.44z"/>
   <path style="stroke-linejoin:round;stroke:#6d6e71;stroke-width:3;stroke-miterlimit:10" d="m184 149.5c0 5.8-6.4 10.5-14.4 10.5h-147.2c-7.95 0-14.4-4.7-14.4-10.5v-107c0-5.81 6.45-10.5 14.4-10.5h147.2c7.953 0 14.4 4.688 14.4 10.47z"/>
   <path style="stroke-linejoin:round;stroke:#6d6e71;stroke-width:3;stroke-miterlimit:10" d="m149.5 8c5.8 0 10.5 6.45 10.5 14.4v147.2c0 7.953-4.688 14.4-10.47 14.4h-107c-5.81 0-10.5-6.4-10.5-14.4v-147.2c0.03-7.95 4.72-14.4 10.5-14.4z"/>
   <circle style="stroke-linejoin:round;stroke:#6d6e71;stroke-width:3;stroke-miterlimit:10" cx="96" r="88" cy="96"/>
  </g>
 </g>
 <g style="display:none" transform="translate(-2.365 -55.58)" display="none">
  <g style="stroke-miterlimit:10;display:inline" stroke-miterlimit="10" display="inline">
   <path style="stroke-linejoin:round;stroke:#000;stroke-linecap:round;stroke-miterlimit:10;stroke-width:6;fill:none" d="m105.6 8h-19.19c-6.447 0-5.813 6.182-5.813 6.182v17.82h30.81v-17.82s0.635-6.182-5.812-6.182z"/>
   <path style="stroke-linejoin:round;stroke:#000;stroke-linecap:round;stroke-miterlimit:10;stroke-width:6;fill:none" d="m114.6 44.2c-4-3.72-3.2-12.2-3.2-12.2h-30.82s0.848 8.475-3.221 12.2c-4.07 3.73-21.36 11.87-21.36 31.7v86.62s0.304 21.48 13.48 21.48h53.03c13.18 0 13.49-21.48 13.49-21.48v-86.6c0-19.83-17.29-27.97-21.36-31.7z"/>
   <line style="stroke-linejoin:round;stroke:#000;stroke-linecap:round;stroke-miterlimit:10;stroke-width:6;fill:none" x1="74.96" y1="32" x2="117" y2="32"/>
  </g>
 </g>
 <path style="stroke-width:.2659;fill:#fff" d="m50.98 10.62c-2.3-0.846-3.93-1.73-4.95-2.657-0.42-0.393-0.41-0.403-0.28 0.162 0.06381 0.2749 0.1276 0.7264 0.1473 1.006l0.02951 0.5006h-9.143l-0.02473-0.1079c-0.01462-0.06381-0.1029-0.6429-0.1962-1.291-0.1569-1.045-0.1667-1.183-0.09811-1.232 0.03935-0.02951 0.2651-0.06886 0.5006-0.08854 0.6331-0.04414 2.027-0.255 2.852-0.427 1.885-0.3877 4.412-1.124 5.212-1.512 0.5692-0.2797 0.795-0.3289 0.8245-0.1866 0.0098 0.04919-0.05397 0.3092-0.1425 0.5791-0.08827 0.2651-0.1473 0.5004-0.1324 0.5153 0.01462 0.01462 0.1473-0.1032 0.2994-0.2603 1.178-1.241 2.061-2.964 2.41-4.696 0.09758-0.4757 0.09758-0.5198 0.0042-0.5198-0.03909 0-0.4762 0.2502-0.9667 0.5546-3.735 2.316-7.244 3.641-10.82 4.083-0.4956 0.06381-2.046 0.1667-2.488 0.1718h-0.1422l0.02925 0.4318c0.1592 1.321 0.3894 2.513 0.5544 3.877l0.01941 0.1079h-34.49v1.279l-0.000001 1.276h34.47c-0.1485 1.521-0.4406 2.892-0.5597 4.397 0.01968 0.01489 0.4711 0.0444 1.006 0.07365 2.631 0.1274 4.883 0.628 7.474 1.664 1.703 0.6775 3.219 1.463 5.118 2.64 0.3978 0.2502 0.7562 0.4515 0.7952 0.4515 0.09332 0 0.09332-0.04414-0.02446-0.6182-0.2749-1.34-1.045-2.979-1.894-4.029-0.3238-0.4025-0.7607-0.8588-0.795-0.8248-0.01489 0.01489 0.04414 0.2406 0.1324 0.5054 0.2651 0.7851 0.1962 0.8343-0.6331 0.4222-0.3975-0.1914-0.8785-0.373-1.619-0.5937-2.488-0.7461-4.431-1.163-6.297-1.345-0.3486-0.0343-0.6623-0.08827-0.7017-0.1178-0.06381-0.04413-0.04919-0.2108 0.1029-1.227 0.09359-0.6479 0.1866-1.232 0.2013-1.301l0.01968-0.1226 4.564 0.01462 4.564 0.0098v0.3092c0.000001 0.3289-0.1032 1.026-0.2108 1.443-0.06381 0.2305-0.05902 0.2502 0.0098 0.2108 0.0444-0.01941 0.1327-0.09811 0.2013-0.1718 0.2013-0.2209 0.8835-0.7362 1.423-1.075 0.8883-0.5645 2.596-1.34 4.113-1.875 0.1372-0.04919 0.255-0.09811 0.255-0.1127 0-0.01967-0.3289-0.1473-0.7264-0.2946z"/>
</svg>
