<?xml version="1.0" encoding="UTF-8" standalone="no"?>
<svg xmlns="http://www.w3.org/2000/svg" height="21.81" width="33.67" version="1.1" y="0px" x="0px" viewBox="0 0 33.664459 21.814605">
 <title>Extra Bold Torch No-Light</title>
 <desc>Created with Sketch.</desc>
 <g style="display:none" transform="translate(-79.2 -88.86)" display="none">
  <g style="stroke-miterlimit:10;display:inline" stroke-miterlimit="10" display="inline">
   <line style="stroke-linejoin:round;stroke:#e6e7e8;stroke-width:3;stroke-miterlimit:10" y2="192" x2="192"/>
   <line style="stroke-linejoin:round;stroke:#e6e7e8;stroke-width:3;stroke-miterlimit:10" y2="192" x2="0" x1="192"/>
   <line style="stroke-linejoin:round;stroke:#e6e7e8;stroke-width:3;stroke-miterlimit:10" y2="96" x2="0" y1="96" x1="192"/>
   <line style="stroke-linejoin:round;stroke:#e6e7e8;stroke-width:3;stroke-miterlimit:10" y2="192" x2="96" x1="96"/>
   <path style="stroke-linejoin:round;stroke:#6d6e71;stroke-width:3;stroke-miterlimit:10" d="m172 159.6c0 6.869-5.568 12.44-12.44 12.44h-127.2c-6.83 0-12.4-5.6-12.4-12.4v-127.2c0-6.83 5.57-12.4 12.44-12.4h127.2c6.8 0 12.4 5.57 12.4 12.44z"/>
   <path style="stroke-linejoin:round;stroke:#6d6e71;stroke-width:3;stroke-miterlimit:10" d="m184 149.5c0 5.8-6.4 10.5-14.4 10.5h-147.2c-7.95 0-14.4-4.7-14.4-10.5v-107c0-5.81 6.45-10.5 14.4-10.5h147.2c7.953 0 14.4 4.688 14.4 10.47z"/>
   <path style="stroke-linejoin:round;stroke:#6d6e71;stroke-width:3;stroke-miterlimit:10" d="m149.5 8c5.8 0 10.5 6.45 10.5 14.4v147.2c0 7.953-4.688 14.4-10.47 14.4h-107c-5.81 0-10.5-6.4-10.5-14.4v-147.2c0.06-7.95 4.75-14.4 10.53-14.4z"/>
   <circle style="stroke-linejoin:round;stroke:#6d6e71;stroke-width:3;stroke-miterlimit:10" cx="96" r="88" cy="96"/>
  </g>
 </g>
 <g style="display:none" transform="translate(-79.2 -88.86)" display="none">
  <g style="stroke-miterlimit:10;display:inline" stroke-miterlimit="10" display="inline">
   <path style="stroke-linejoin:round;stroke:#000;stroke-linecap:round;stroke-miterlimit:10;stroke-width:6;fill:none" d="m105.6 8h-19.19c-6.447 0-5.813 6.182-5.813 6.182v17.82h30.81v-17.82s0.635-6.182-5.812-6.182z"/>
   <path style="stroke-linejoin:round;stroke:#000;stroke-linecap:round;stroke-miterlimit:10;stroke-width:6;fill:none" d="m114.6 44.2c-4-3.72-3.2-12.2-3.2-12.2h-30.82s0.848 8.475-3.221 12.2c-4.07 3.73-21.36 11.87-21.36 31.7v86.62s0.304 21.48 13.48 21.48h53.03c13.18 0 13.49-21.48 13.49-21.48v-86.6c0-19.83-17.29-27.97-21.36-31.7z"/>
   <line style="stroke-linejoin:round;stroke:#000;stroke-linecap:round;stroke-miterlimit:10;stroke-width:6;fill:none" y2="32" x2="117" y1="32" x1="74.96"/>
  </g>
 </g>
 <path style="stroke-width:.3458;fill:#fff" d="m32.64 16.87c0.158-0.6854 0.6846-3.157 0.6609-5.601-0.02331-2.462-0.5455-5.477-0.6942-6.29 0.6502-0.474 1.064-1.187 1.064-1.984 0-1.428-1.326-2.585-2.96-2.585-0.9004 0-1.705 0.3522-2.248 0.9061-0.03035-0.0029-0.06032-0.0097-0.09067-0.01163 0 0-7.545-0.8877-11.93-0.8877-3.873 0-10.2 0.6967-11.28 0.8599-0.5421-0.5303-1.329-0.8663-2.207-0.8663-1.635 0-2.96 1.157-2.96 2.585 0 0.7125 0.3305 1.358 0.8641 1.825-0.05736 0.4026-0.5218 3.754-0.5218 6.45 0 2.635 0.4659 5.295 0.5432 5.717-0.5462 0.4692-0.8856 1.121-0.8856 1.843 0 1.428 1.326 2.585 2.96 2.585 0.8763 0 1.661-0.3344 2.203-0.8631 0.9832 0.1574 7.126 0.8631 11.67 0.8631 4.752 0 11.57-0.8877 11.57-0.8877 0.02442-0.0016 0.04811-0.0071 0.07253-0.0091 0.5429 0.5484 1.343 0.8967 2.239 0.8967 1.635 0 2.96-1.157 2.96-2.585 0-0.7833-0.4008-1.484-1.031-1.958zm-27.52-2.378 0.003 0.01777-1.831 0.2349c-0.0022-0.02068-0.3186-1.884-0.3216-3.672 0.003-1.788 0.319-3.651 0.3216-3.672l1.831 0.2349-0.003 0.01777c-0.03182 0.1894-0.299 1.895-0.299 3.419s0.2672 3.229 0.299 3.419z"/>
</svg>
