<?xml version="1.0" encoding="UTF-8" standalone="no"?>
<svg xmlns="http://www.w3.org/2000/svg" height="22.81" width="23" version="1.1" y="0px" x="0px" viewBox="0 0 23 22.81482">
 <defs>
  <style type="text/css">.fil0 {fill:black}</style>
 </defs>
 <title>Extra Bold Torch No-Light</title>
 <desc>Created with Sketch.</desc>
 <g style="display:none" transform="translate(-56.37 -109.5)" display="none">
  <g style="display:inline" stroke-miterlimit="10" display="inline">
   <line style="stroke-linejoin:round;stroke:#e6e7e8;stroke-width:3;stroke-miterlimit:10" y2="192" x2="192"/>
   <line style="stroke-linejoin:round;stroke:#e6e7e8;stroke-width:3;stroke-miterlimit:10" y2="192" x2="0" x1="192"/>
   <line style="stroke-linejoin:round;stroke:#e6e7e8;stroke-width:3;stroke-miterlimit:10" y2="96" x2="0" y1="96" x1="192"/>
   <line style="stroke-linejoin:round;stroke:#e6e7e8;stroke-width:3;stroke-miterlimit:10" y2="192" x2="96" x1="96"/>
   <path style="stroke-linejoin:round;stroke:#6d6e71;stroke-width:3;stroke-miterlimit:10" d="m172 159.6c0 6.869-5.568 12.44-12.44 12.44h-127.2c-6.83 0-12.4-5.6-12.4-12.4v-127.2c0-6.83 5.57-12.4 12.44-12.4h127.2c6.8 0 12.4 5.57 12.4 12.44z"/>
   <path style="stroke-linejoin:round;stroke:#6d6e71;stroke-width:3;stroke-miterlimit:10" d="m184 149.5c0 5.8-6.4 10.5-14.4 10.5h-147.2c-7.95 0-14.4-4.7-14.4-10.5v-107c0-5.81 6.45-10.5 14.4-10.5h147.2c7.953 0 14.4 4.688 14.4 10.47z"/>
   <path style="stroke-linejoin:round;stroke:#6d6e71;stroke-width:3;stroke-miterlimit:10" d="m149.5 8c5.8 0 10.5 6.45 10.5 14.4v147.2c0 7.953-4.688 14.4-10.47 14.4h-107c-5.81 0-10.5-6.4-10.5-14.4v-147.2c0-7.95 4.69-14.4 10.47-14.4z"/>
   <circle style="stroke-linejoin:round;stroke:#6d6e71;stroke-width:3;stroke-miterlimit:10" cx="96" cy="96" r="88"/>
  </g>
 </g>
 <g style="display:none" transform="translate(-56.37 -109.5)" display="none">
  <g style="display:inline" stroke-miterlimit="10" display="inline">
   <path style="stroke-linejoin:round;stroke:#000;stroke-linecap:round;stroke-miterlimit:10;stroke-width:6;fill:none" d="m105.6 8h-19.19c-6.447 0-5.813 6.182-5.813 6.182v17.82h30.81v-17.82s0.635-6.182-5.812-6.182z"/>
   <path style="stroke-linejoin:round;stroke:#000;stroke-linecap:round;stroke-miterlimit:10;stroke-width:6;fill:none" d="m114.6 44.2c-4-3.72-3.2-12.2-3.2-12.2h-30.82s0.848 8.475-3.221 12.2c-4.07 3.73-21.36 11.87-21.36 31.7v86.62s0.304 21.48 13.48 21.48h53.03c13.18 0 13.49-21.48 13.49-21.48v-86.62c0-19.83-17.29-27.97-21.36-31.7z"/>
   <line style="stroke-linejoin:round;stroke:#000;stroke-linecap:round;stroke-miterlimit:10;stroke-width:6;fill:none" y2="32" x2="117" y1="32" x1="74.96"/>
  </g>
 </g>
 <circle r="9.53" style="stroke-linejoin:round;color-rendering:auto;color:#000000;shape-rendering:auto;solid-color:#000000;stroke:#fff;stroke-width:2;fill:none;mix-blend-mode:normal;image-rendering:auto;isolation:auto" cx="11.5" cy="11.41"/>
 <g style="fill:#fff" transform="translate(-38.56 -58.12)" data-name="Layer 1">
  <path style="fill:#fff" d="m52.49 76.55h-4.88c-0.09982 0-0.1807-0.08092-0.1807-0.1807v-1.627h-0.2711c-0.8237-0.02415-1.492-0.6755-1.536-1.498v-1.936h-1.059c-0.1388 0.0012-0.2674-0.07279-0.3362-0.1934-0.06888-0.1178-0.06888-0.2636 0-0.3814l1.395-2.463v-0.87c0-2.326 1.939-4.218 4.321-4.218h0.4012c2.562-0.01001 4.648 2.056 4.663 4.618v1.032c-0.01569 1.646-0.9058 3.16-2.337 3.974v3.57c0 0.09982-0.08092 0.1807-0.1807 0.1807z"/>
 </g>
</svg>
