<?xml version="1.0" encoding="UTF-8" standalone="no"?>
<svg xmlns="http://www.w3.org/2000/svg" height="22.81" width="62.98" version="1.1" y="0px" x="0px" viewBox="0 0 62.976324 22.814816">
 <title>Extra Bold Torch No-Light</title>
 <desc>Created with Sketch.</desc>
 <g style="display:none" transform="translate(-48.21 -108.7)" display="none">
  <g style="stroke-miterlimit:10;display:inline" stroke-miterlimit="10" display="inline">
   <line style="stroke-linejoin:round;stroke:#e6e7e8;stroke-width:3;stroke-miterlimit:10" y2="192" x2="192"/>
   <line style="stroke-linejoin:round;stroke:#e6e7e8;stroke-width:3;stroke-miterlimit:10" x1="192" x2="0" y2="192"/>
   <line style="stroke-linejoin:round;stroke:#e6e7e8;stroke-width:3;stroke-miterlimit:10" x1="192" y1="96" x2="0" y2="96"/>
   <line style="stroke-linejoin:round;stroke:#e6e7e8;stroke-width:3;stroke-miterlimit:10" x1="96" x2="96" y2="192"/>
   <path style="stroke-linejoin:round;stroke:#6d6e71;stroke-width:3;stroke-miterlimit:10" d="m172 159.6c0 6.869-5.568 12.44-12.44 12.44h-127.2c-6.83 0-12.4-5.6-12.4-12.4v-127.2c0-6.83 5.57-12.4 12.44-12.4h127.2c6.8 0 12.4 5.57 12.4 12.44z"/>
   <path style="stroke-linejoin:round;stroke:#6d6e71;stroke-width:3;stroke-miterlimit:10" d="m184 149.5c0 5.8-6.4 10.5-14.4 10.5h-147.2c-7.95 0-14.4-4.7-14.4-10.5v-107c0-5.81 6.45-10.5 14.4-10.5h147.2c7.953 0 14.4 4.688 14.4 10.47z"/>
   <path style="stroke-linejoin:round;stroke:#6d6e71;stroke-width:3;stroke-miterlimit:10" d="m149.5 8c5.8 0 10.5 6.45 10.5 14.4v147.2c0 7.953-4.688 14.4-10.47 14.4h-107c-5.81 0-10.5-6.4-10.5-14.4v-147.2c0.03-7.95 4.72-14.4 10.5-14.4z"/>
   <circle style="stroke-linejoin:round;stroke:#6d6e71;stroke-width:3;stroke-miterlimit:10" cx="96" r="88" cy="96"/>
  </g>
 </g>
 <g style="display:none" transform="translate(-48.21 -108.7)" display="none">
  <g style="stroke-miterlimit:10;display:inline" stroke-miterlimit="10" display="inline">
   <path style="stroke-linejoin:round;stroke:#000;stroke-linecap:round;stroke-miterlimit:10;stroke-width:6;fill:none" d="m105.6 8h-19.19c-6.447 0-5.813 6.182-5.813 6.182v17.82h30.81v-17.82s0.635-6.182-5.812-6.182z"/>
   <path style="stroke-linejoin:round;stroke:#000;stroke-linecap:round;stroke-miterlimit:10;stroke-width:6;fill:none" d="m114.6 44.2c-4-3.72-3.2-12.2-3.2-12.2h-30.82s0.848 8.475-3.221 12.2c-4.07 3.73-21.36 11.87-21.36 31.7v86.62s0.304 21.48 13.48 21.48h53.03c13.18 0 13.49-21.48 13.49-21.48v-86.6c0-19.83-17.29-27.97-21.36-31.7z"/>
   <line style="stroke-linejoin:round;stroke:#000;stroke-linecap:round;stroke-miterlimit:10;stroke-width:6;fill:none" x1="74.96" y1="32" x2="117" y2="32"/>
  </g>
 </g>
 <path style="stroke-width:.1078;fill:#fff" d="m61.79 12.19c-0.3506-0.4878-0.3582-1.105 0-1.601 1.806-2.508 1.585-6.037-0.6784-8.3-2.515-2.515-6.601-2.515-9.116 0-0.7698 0.7698-1.28 1.692-1.57 2.668h-37.85c-0.2972-0.968-0.8003-1.898-1.57-2.668-2.515-2.515-6.601-2.515-9.116 0-2.264 2.264-2.492 5.8-0.6784 8.316 0.3506 0.4878 0.3582 1.105 0 1.601-1.814 2.515-1.585 6.052 0.6784 8.316 2.515 2.515 6.601 2.515 9.116 0 0.7698-0.7698 1.28-1.692 1.57-2.668h37.85c0.2973 0.968 0.8003 1.898 1.57 2.668 2.515 2.515 6.601 2.515 9.116 0 2.264-2.279 2.485-5.808 0.6784-8.331z"/>
</svg>
