<?xml version="1.0" encoding="UTF-8" standalone="no"?>
<svg xmlns="http://www.w3.org/2000/svg" height="21.81" width="21.33" version="1.1" y="0px" x="0px" viewBox="0 0 21.330763 21.814604">
 <title>Extra Bold Torch No-Light</title>
 <desc>Created with Sketch.</desc>
 <g style="display:none" transform="translate(-45.93 -39.46)" display="none">
  <g style="stroke-miterlimit:10;display:inline" stroke-miterlimit="10" display="inline">
   <line style="stroke-linejoin:round;stroke:#e6e7e8;stroke-width:3;stroke-miterlimit:10" y2="192" x2="192"/>
   <line style="stroke-linejoin:round;stroke:#e6e7e8;stroke-width:3;stroke-miterlimit:10" x1="192" x2="0" y2="192"/>
   <line style="stroke-linejoin:round;stroke:#e6e7e8;stroke-width:3;stroke-miterlimit:10" x1="192" y1="96" x2="0" y2="96"/>
   <line style="stroke-linejoin:round;stroke:#e6e7e8;stroke-width:3;stroke-miterlimit:10" x1="96" x2="96" y2="192"/>
   <path style="stroke-linejoin:round;stroke:#6d6e71;stroke-width:3;stroke-miterlimit:10" d="m172 159.6c0 6.869-5.568 12.44-12.44 12.44h-127.2c-6.83 0-12.4-5.6-12.4-12.4v-127.2c0-6.83 5.57-12.4 12.44-12.4h127.2c6.8 0 12.4 5.57 12.4 12.44z"/>
   <path style="stroke-linejoin:round;stroke:#6d6e71;stroke-width:3;stroke-miterlimit:10" d="m184 149.5c0 5.8-6.4 10.5-14.4 10.5h-147.2c-7.95 0-14.4-4.7-14.4-10.5v-107c0-5.81 6.45-10.5 14.4-10.5h147.2c7.953 0 14.4 4.688 14.4 10.47z"/>
   <path style="stroke-linejoin:round;stroke:#6d6e71;stroke-width:3;stroke-miterlimit:10" d="m149.5 8c5.8 0 10.5 6.45 10.5 14.4v147.2c0 7.953-4.688 14.4-10.47 14.4h-107c-5.81 0-10.5-6.4-10.5-14.4v-147.2c0.03-7.95 4.72-14.4 10.5-14.4z"/>
   <circle style="stroke-linejoin:round;stroke:#6d6e71;stroke-width:3;stroke-miterlimit:10" cx="96" r="88" cy="96"/>
  </g>
 </g>
 <g style="display:none" transform="translate(-45.93 -39.46)" display="none">
  <g style="stroke-miterlimit:10;display:inline" stroke-miterlimit="10" display="inline">
   <path style="stroke-linejoin:round;stroke:#000;stroke-linecap:round;stroke-miterlimit:10;stroke-width:6;fill:none" d="m105.6 8h-19.19c-6.447 0-5.813 6.182-5.813 6.182v17.82h30.81v-17.82s0.635-6.182-5.812-6.182z"/>
   <path style="stroke-linejoin:round;stroke:#000;stroke-linecap:round;stroke-miterlimit:10;stroke-width:6;fill:none" d="m114.6 44.2c-4-3.72-3.2-12.2-3.2-12.2h-30.82s0.848 8.475-3.221 12.2c-4.07 3.73-21.36 11.87-21.36 31.7v86.62s0.304 21.48 13.48 21.48h53.03c13.18 0 13.49-21.48 13.49-21.48v-86.6c0-19.83-17.29-27.97-21.36-31.7z"/>
   <line style="stroke-linejoin:round;stroke:#000;stroke-linecap:round;stroke-miterlimit:10;stroke-width:6;fill:none" x1="74.96" y1="32" x2="117" y2="32"/>
  </g>
 </g>
 <g transform="matrix(.2605 0 0 .2605 4.479 23.1)">
  <g style="fill:#fff" transform="translate(-26.54 -77.51)">
   <path style="fill:#fff" d="m89.97 48.9c-0.314-1.915 0.516-4.6-1.614-5.186-1.346-0.37-6.755-2.123-8.023-1.342-1.082 0.666 0.289 6.388 0.442 7.402 0.064 0.378-0.024 0.693-0.265 0.946-1.644-1.368-0.637-6.432-1.748-8.271-1.962-3.248-5.997-4.178-8.369-7.182-2.499-3.166-6.032-2.345-9.403-4.097-3.085-1.603-5.953-2.347-9.363-1.73-3.403 0.616-6.712 1.735-10.15 2.152-1.82 0.221-3.575 0.268-5.398 0.062-1.414-0.16-1.778 1.039-2.457 2.116-1.523 2.419-3.125 4.701-4.904 6.938-1.07 1.346-2.072 2.765-3.049 4.179-0.35 0.507-1.353 2.717-2.031 2.836-0.645 0.113 2.571-4.385 1.873-4.381-2.559 0.015-6.74 2.214-9.238 2.994-2.591 0.809-3.065 0.81-4.184 3.126-1.079 2.232-1.977 4.426-2.716 6.782-0.57 1.817 3.837 4.564 4.933 5.476 1.867 1.555 4.539 3.688 6.953 4.335 1.514 0.406 15.39-0.982 15.34-1.258 0.118 0.636-2.48 0.948-2.607 1.466-0.213 0.868 4.327 2.257 5.101 2.61 4.904 2.237 11.44 1.505 16.71 2.106 3.154 0.359 5.925-2.708 8.437-4.503 1.26-0.9 2.559-1.789 3.719-2.814 0.949-0.838 3.371-3.636 4.818-3.818 0.505-0.064-3.395 3.257-3.535 3.631-0.373 0.994 7.42 3.144 8.271 3.289 1.65 0.282 4.51-2.633 5.787-3.644 2.425-1.919 4.789-3.89 6.968-6.09 2.062-2.077 0.133-5.509-0.297-8.13zm-73.63 11.88c-0.639-0.677-1.874-1.613-2.241-2.535 0.074-0.056 0.06-0.025 0.036-0.005 0.087-0.029 0.251 0.032 0.471 0.162 0-0.028 0.033-0.055 0.097 0.002-0.024 0.02-0.038 0.02-0.053 0.022 1.188 0.729 3.76 3.206 3.807 3.587 0.134 1.077-1.918-1.023-2.117-1.233zm2.249-1.601c0.037 0.384-4.263-3.034-3.803-3.502 0.228-0.232 3.803 3.251 3.803 3.502 0-0.165 0.014 0.146 0 0zm4.46-10.84c-0.073-0.227-0.045-0.286 0.174-0.369 0.073 0.227 0.044 0.287-0.174 0.369zm19.92 10.6c-0.156-0.057 0.143 0.037 0 0 0.38 0.099-4.332 2.97-4.614 2.376-0.106-0.223 4.223-2.518 4.614-2.376zm-12.49-13.82c-0.728-0.608 3.307-5.402 4.033-6.043 0.005-0.009 0.021-0.026 0.066-0.059 2.251-0.143-3.96 6.219-4.099 6.102zm5.992-7.832c-0.736 1.368-1.666 0.441-1.056-0.717 0.635-1.203 1.669-0.421 1.056 0.717zm7.124 24.56c1.215-1.313-3.761 2.139-5.599 2.189-0.039-0.126-0.017-0.125 0.003-0.092 0.276-1.018 8.09-5.106 8.95-4.876 1.866 0.5-3.397 2.825-3.354 2.779zm22.92-21.32c-0.098-0.48-2.135-4.122-1.997-4.222 1.022-0.734 4.076 6.802 4.191 7.273-0.155 1.716-2.039-2.299-2.194-3.051zm1.296-4.015c0.732-0.342 2.983 4.508 3.219 5.306 0.004 0.012 0.01 0.03 0.016 0.062-0.615 1.572-3.499-5.244-3.235-5.368zm10.59 20.77c-0.412 0.596-2.199 6.698-3.189 6.537-0.182-0.146-0.255-0.334-0.219-0.564 0.004-0.035 0.007-0.042 0.008-0.036 0.091-0.413 1.03-2.221 0.464-2.328-0.643-0.121-0.191 1.13-0.649 1.172-0.703 0.064 0.239-2.66 0.687-2.607 0.592 0.071-0.017 1.19 0.312 1.233 0.248 0.033 1.164-2.616 1.306-2.832 0.374-0.571 0.373-1.157 0.885-1.658 0.74-0.723 0.457 0.994 0.395 1.083z"/>
  </g>
  <rect style="color-rendering:auto;color:#000000;isolation:auto;mix-blend-mode:normal;shape-rendering:auto;solid-color:#000000;image-rendering:auto;fill:#fff" ry="4.798" height="22.87" width="9.596" y="-87.11" x="19.28"/>
  <rect ry="4.798" style="color-rendering:auto;color:#000000;isolation:auto;mix-blend-mode:normal;shape-rendering:auto;solid-color:#000000;image-rendering:auto;fill:#fff" transform="rotate(45)" height="22.87" width="9.596" y="-94.3" x="-19.67"/>
  <rect style="color-rendering:auto;color:#000000;isolation:auto;mix-blend-mode:normal;shape-rendering:auto;solid-color:#000000;image-rendering:auto;fill:#fff" transform="matrix(-.7071 .7071 .7071 .7071 0 0)" ry="4.798" height="22.87" width="9.596" y="-60.26" x="-53.72"/>
 </g>
</svg>
