<?xml version="1.0" encoding="UTF-8" standalone="no"?>
<svg xmlns="http://www.w3.org/2000/svg" height="22.81" width="46.67" version="1.1" y="0px" x="0px" viewBox="0 0 46.666668 22.814816">
 <title>Extra Bold Torch No-Light</title>
 <desc>Created with Sketch.</desc>
 <g style="display:none" transform="translate(-56.37 -109.5)" display="none">
  <g style="display:inline" stroke-miterlimit="10" display="inline">
   <line style="stroke-linejoin:round;stroke:#e6e7e8;stroke-width:3;stroke-miterlimit:10" y2="192" x2="192"/>
   <line style="stroke-linejoin:round;stroke:#e6e7e8;stroke-width:3;stroke-miterlimit:10" y2="192" x2="0" x1="192"/>
   <line style="stroke-linejoin:round;stroke:#e6e7e8;stroke-width:3;stroke-miterlimit:10" y2="96" x2="0" y1="96" x1="192"/>
   <line style="stroke-linejoin:round;stroke:#e6e7e8;stroke-width:3;stroke-miterlimit:10" y2="192" x2="96" x1="96"/>
   <path style="stroke-linejoin:round;stroke:#6d6e71;stroke-width:3;stroke-miterlimit:10" d="m172 159.6c0 6.869-5.568 12.44-12.44 12.44h-127.2c-6.83 0-12.4-5.6-12.4-12.4v-127.2c0-6.83 5.57-12.4 12.44-12.4h127.2c6.8 0 12.4 5.57 12.4 12.44z"/>
   <path style="stroke-linejoin:round;stroke:#6d6e71;stroke-width:3;stroke-miterlimit:10" d="m184 149.5c0 5.8-6.4 10.5-14.4 10.5h-147.2c-7.95 0-14.4-4.7-14.4-10.5v-107c0-5.81 6.45-10.5 14.4-10.5h147.2c7.953 0 14.4 4.688 14.4 10.47z"/>
   <path style="stroke-linejoin:round;stroke:#6d6e71;stroke-width:3;stroke-miterlimit:10" d="m149.5 8c5.8 0 10.5 6.45 10.5 14.4v147.2c0 7.953-4.688 14.4-10.47 14.4h-107c-5.81 0-10.5-6.4-10.5-14.4v-147.2c0-7.95 4.69-14.4 10.47-14.4z"/>
   <circle style="stroke-linejoin:round;stroke:#6d6e71;stroke-width:3;stroke-miterlimit:10" cx="96" cy="96" r="88"/>
  </g>
 </g>
 <g style="display:none" transform="translate(-56.37 -109.5)" display="none">
  <g style="display:inline" stroke-miterlimit="10" display="inline">
   <path style="stroke-linejoin:round;stroke:#000;stroke-linecap:round;stroke-miterlimit:10;stroke-width:6;fill:none" d="m105.6 8h-19.19c-6.447 0-5.813 6.182-5.813 6.182v17.82h30.81v-17.82s0.635-6.182-5.812-6.182z"/>
   <path style="stroke-linejoin:round;stroke:#000;stroke-linecap:round;stroke-miterlimit:10;stroke-width:6;fill:none" d="m114.6 44.2c-4-3.72-3.2-12.2-3.2-12.2h-30.82s0.848 8.475-3.221 12.2c-4.07 3.73-21.36 11.87-21.36 31.7v86.62s0.304 21.48 13.48 21.48h53.03c13.18 0 13.49-21.48 13.49-21.48v-86.62c0-19.83-17.29-27.97-21.36-31.7z"/>
   <line style="stroke-linejoin:round;stroke:#000;stroke-linecap:round;stroke-miterlimit:10;stroke-width:6;fill:none" y2="32" x2="117" y1="32" x1="74.96"/>
  </g>
 </g>
 <path style="stroke-width:.3966;fill:#fff" d="m7.857 0.5098c-0.487 0-0.765 0.0873-0.968 0.1523-0.153 0.0492-0.247 0.0801-0.487 0.0801-0.33 0-0.49-0.0131-0.66-0.0274-0.186-0.0158-0.398-0.0332-0.795-0.0332-0.37 0-0.555 0.0027-0.74 0.0059-0.178 0.0032-0.358 0.0059-0.715 0.0059-1.169 0-2.086 0.9326-2.086 2.123 0 0.418 0.026 0.639 0.049 0.834 0.02 0.175 0.037 0.327 0.037 0.653 0 0.33-0.015 0.484-0.033 0.662-0.02 0.193-0.043 0.41-0.043 0.822 0 0.404 0.017 0.62 0.033 0.809 0.014 0.173 0.03 0.337 0.03 0.675 0 1.122 0.713 1.985 1.701 2.139-0.548 1.61-1.491 4.86-1.491 8.24v4.15c0 0.44 0.356 0.8 0.793 0.8 0.042 0 0.083-0.01 0.123-0.01h8.755c0.44 0 0.79-0.36 0.79-0.8v-0.24c0.85 0.36 2.24 0.69 4.27 0.88v-4.24c0-2.24 0.39-4.38 0.82-6.15-0.06-0.06-0.12-0.12-0.17-0.19-1.04-1.35-1.62-2.178-1.71-2.469 0.01-0.017 0.02-0.034 0.03-0.053 0-0.005 0.01-0.013 0.01-0.017 0.59-0.065 1.08-0.343 1.42-0.754-0.39-0.42-0.63-0.999-0.63-1.668 0-0.369-0.01-0.547-0.03-0.737-0.02-0.206-0.04-0.439-0.04-0.879 0-0.448 0.03-0.688 0.05-0.898 0.02-0.194 0.04-0.36 0.04-0.721 0-0.355-0.02-0.52-0.04-0.711-0.03-0.213-0.05-0.453-0.05-0.908 0-0.378 0.09-0.727 0.24-1.039-0.35-0.2546-0.77-0.4081-1.22-0.4081-0.41 0-0.63 0.0247-0.82 0.0449-0.17 0.0186-0.32 0.0332-0.64 0.0332-0.36 0-0.54-0.0038-0.71-0.0078-0.19-0.0039-0.37-0.0078-0.75-0.0078-0.3 0-0.45-0.0207-0.61-0.0449-0.2-0.029-0.42-0.0625-0.84-0.0625-0.38 0-0.57 0.0077-0.76 0.0156-0.176 0.0071-0.35 0.0156-0.698 0.0156-0.328 0-0.479-0.0134-0.656-0.0293-0.187-0.0166-0.399-0.0351-0.799-0.0351z"/>
 <path d="m41.23 10.08c0.2058-0.3807 0.3228-0.8157 0.3228-1.278 0-1.487-1.209-2.696-2.696-2.696s-2.696 1.209-2.696 2.696 1.209 2.696 2.696 2.696c0.1784 0 0.3525-0.01824 0.5211-0.05155 0.1844 0.5833 0.3367 1.369 0.09359 1.878-0.08129 0.1701-0.2463 0.4077-0.7427 0.5405-0.5385 0.01507-4.086 0.02538-5.666-2.018-1.041-1.347-1.614-2.177-1.704-2.468 0.0083-0.01705 0.01745-0.0341 0.02617-0.05274 0.0024-0.00479 0.0056-0.0119 0.0079-0.01666 1.084-0.1182 1.876-0.9501 1.876-2.039 0-0.4652-0.05314-0.7082-0.09993-0.9228-0.03529-0.1618-0.06305-0.2899-0.06821-0.5754-0.0067-0.347 0.0075-0.5044 0.0234-0.6868 0.01626-0.1868 0.03489-0.3981 0.03489-0.7868 0-0.3018 0.02379-0.4354 0.05314-0.6043 0.03608-0.2058 0.07693-0.439 0.07693-0.8788 0-1.208-0.9878-2.228-2.157-2.228-0.4069 0-0.623 0.0234-0.8133 0.04362-0.1729 0.01864-0.322 0.0345-0.6444 0.0345-0.3557 0-0.5338-0.003945-0.7118-0.007928-0.1864-0.003945-0.3728-0.007928-0.7455-0.007928-0.3057 0-0.4477-0.02102-0.6123-0.04521-0.1975-0.02894-0.4211-0.06186-0.8427-0.06186-0.3799 0-0.5702 0.007928-0.7602 0.01586-0.1737 0.007139-0.347 0.01428-0.6944 0.01428-0.3283 0-0.4802-0.01348-0.6567-0.02935-0.1872-0.01666-0.3989-0.03569-0.7983-0.03569-0.4878 0-0.7661 0.08922-0.9696 0.1543-0.1531 0.04917-0.2459 0.07891-0.4854 0.07891-0.3307 0-0.4913-0.01348-0.6614-0.02776-0.186-0.01586-0.3965-0.03331-0.7935-0.03331-0.3704 0-0.5556 0.003169-0.7408 0.006337-0.1784 0.003169-0.3569 0.005949-0.7142 0.005949-1.169 0-2.086 0.9327-2.086 2.123 0 0.4172 0.02538 0.6384 0.04798 0.8339 0.02022 0.1749 0.03767 0.3264 0.03767 0.6523 0 0.3307-0.01586 0.4846-0.03371 0.6622-0.01983 0.1927-0.04203 0.4116-0.04203 0.8236 0 0.4037 0.01745 0.6178 0.03331 0.807 0.01428 0.1737 0.02776 0.3383 0.02776 0.6765 0 1.121 0.7134 1.985 1.701 2.139-0.5476 1.606-1.49 4.86-1.49 8.237v4.156c0 0.4382 0.3553 0.7931 0.7931 0.7931 0.04164 0 0.08288-0.0032 0.1229-0.0091h8.755c0.4378 0 0.7931-0.3553 0.7931-0.7931v-0.2451c1.28 0.5338 3.615 1.048 7.851 1.048h4.552c0.0052-0.000397 0.01229-0.000397 0.0234 0h0.5802c0.1328 0 0.2582-0.03292 0.3684-0.09081 0.8883-0.1487 2.213-0.5397 3.253-1.568 1.023-1.011 1.541-2.392 1.541-4.104-0.000396-3.739-2.874-5.859-5.087-6.755z" style="stroke-width:.3966;fill:#fff"/>
</svg>
