<?xml version="1.0" encoding="UTF-8" standalone="no"?>
<svg xmlns="http://www.w3.org/2000/svg" height="21.81" width="35.34" version="1.1" y="0px" x="0px" viewBox="0 0 35.342216 21.814604">
 <title>Extra Bold Torch No-Light</title>
 <desc>Created with Sketch.</desc>
 <g style="display:none" transform="translate(-27.28 -119.1)" display="none">
  <g style="stroke-miterlimit:10;display:inline" stroke-miterlimit="10" display="inline">
   <line style="stroke-linejoin:round;stroke:#e6e7e8;stroke-width:3;stroke-miterlimit:10" y2="192" x2="192"/>
   <line style="stroke-linejoin:round;stroke:#e6e7e8;stroke-width:3;stroke-miterlimit:10" x1="192" x2="0" y2="192"/>
   <line style="stroke-linejoin:round;stroke:#e6e7e8;stroke-width:3;stroke-miterlimit:10" x1="192" y1="96" x2="0" y2="96"/>
   <line style="stroke-linejoin:round;stroke:#e6e7e8;stroke-width:3;stroke-miterlimit:10" x1="96" x2="96" y2="192"/>
   <path style="stroke-linejoin:round;stroke:#6d6e71;stroke-width:3;stroke-miterlimit:10" d="m172 159.6c0 6.869-5.568 12.44-12.44 12.44h-127.2c-6.83 0-12.4-5.6-12.4-12.4v-127.2c0-6.83 5.57-12.4 12.44-12.4h127.2c6.8 0 12.4 5.57 12.4 12.44z"/>
   <path style="stroke-linejoin:round;stroke:#6d6e71;stroke-width:3;stroke-miterlimit:10" d="m184 149.5c0 5.8-6.4 10.5-14.4 10.5h-147.2c-7.95 0-14.4-4.7-14.4-10.5v-107c0-5.81 6.45-10.5 14.4-10.5h147.2c7.953 0 14.4 4.688 14.4 10.47z"/>
   <path style="stroke-linejoin:round;stroke:#6d6e71;stroke-width:3;stroke-miterlimit:10" d="m149.5 8c5.8 0 10.5 6.45 10.5 14.4v147.2c0 7.953-4.688 14.4-10.47 14.4h-107c-5.81 0-10.5-6.4-10.5-14.4v-147.2c0.03-7.95 4.72-14.4 10.5-14.4z"/>
   <circle style="stroke-linejoin:round;stroke:#6d6e71;stroke-width:3;stroke-miterlimit:10" cx="96" r="88" cy="96"/>
  </g>
 </g>
 <g style="display:none" transform="translate(-27.28 -119.1)" display="none">
  <g style="stroke-miterlimit:10;display:inline" stroke-miterlimit="10" display="inline">
   <path style="stroke-linejoin:round;stroke:#000;stroke-linecap:round;stroke-miterlimit:10;stroke-width:6;fill:none" d="m105.6 8h-19.19c-6.447 0-5.813 6.182-5.813 6.182v17.82h30.81v-17.82s0.635-6.182-5.812-6.182z"/>
   <path style="stroke-linejoin:round;stroke:#000;stroke-linecap:round;stroke-miterlimit:10;stroke-width:6;fill:none" d="m114.6 44.2c-4-3.72-3.2-12.2-3.2-12.2h-30.82s0.848 8.475-3.221 12.2c-4.07 3.73-21.36 11.87-21.36 31.7v86.62s0.304 21.48 13.48 21.48h53.03c13.18 0 13.49-21.48 13.49-21.48v-86.6c0-19.83-17.29-27.97-21.36-31.7z"/>
   <line style="stroke-linejoin:round;stroke:#000;stroke-linecap:round;stroke-miterlimit:10;stroke-width:6;fill:none" x1="74.96" y1="32" x2="117" y2="32"/>
  </g>
 </g>
 <g style="fill:#fff" transform="matrix(.6908 .6908 -.6908 .6908 725.6 -716.1)">
  <path style="fill-rule:evenodd;fill:#fff" d="m8.212 1043 14.68-14.68c0.3906-0.3905 1.024-0.3907 1.414-0.0002l0.0002 0.0003c0.3905 0.3904 0.3904 1.024-0.0001 1.414l-14.68 14.68"/>
  <path style="fill:#fff" d="m24.48 1030c2.01 1.425 4.686 1.477 6.75 0.1306 0.5055 3.161-0.5332 6.373-2.794 8.641-2.271 2.257-5.48 3.299-8.642 2.794 1.349-2.064 1.298-4.742-0.1277-6.752z"/>
  <path style="fill:#fff" d="m17.19 1033c-2.01-1.428-4.689-1.482-6.754-0.1346-0.503-3.16 0.5365-6.37 2.796-8.635 2.263-2.263 5.476-3.299 8.636-2.796-1.35 2.066-1.298 4.747 0.1306 6.758z"/>
  <path style="fill:#fff" d="m2.909 1051-1.414-1.414c-0.3428-0.3427-0.8946-0.3425-1.237 0.0002l-0.0002 0.0002c-0.3429 0.3427-0.343 0.8946-0.0002 1.237l1.414 1.414c0.3427 0.3427 0.8945 0.3427 1.237-0.0001l0.0002-0.0002c0.3428-0.3428 0.3429-0.8946 0.0002-1.237z"/>
  <path style="fill:#fff" d="m2.909 1051c0.3427 0.3426 0.8945 0.3425 1.237-0.0003l0.0002-0.0002c0.3427-0.3427 0.3428-0.8945 0.0001-1.237l-1.415-1.414c-0.3426-0.3427-0.8945-0.3426-1.237 0.0001l-0.0001 0.0001c-0.3429 0.3429-0.343 0.8947-0.0003 1.237"/>
  <path style="fill:#fff" d="m4.144 1050c0.3428 0.3426 0.8947 0.3426 1.237-0.0001l0.0002-0.0002c0.3428-0.3428 0.343-0.8946 0.0003-1.237l-1.414-1.414c-0.3427-0.3427-0.8946-0.3426-1.237 0.0002l-0.0002 0.0002c-0.3428 0.3427-0.3428 0.8945-0.0002 1.237"/>
  <path style="fill:#fff" d="m5.385 1048c0.3427 0.3427 0.8946 0.3426 1.237-0.0002l0.0001-0.0001c0.3429-0.3428 0.3429-0.8946 0.0002-1.237l-1.414-1.414c-0.3427-0.3428-0.8946-0.3426-1.237 0.0002l-0.0002 0.0002c-0.3429 0.3427-0.3429 0.8945-0.0002 1.237"/>
  <path style="fill:#fff" d="m6.622 1047c0.3428 0.3427 0.8946 0.3426 1.237-0.0002l0.0002-0.0002c0.3428-0.3427 0.3429-0.8946 0.0001-1.237l-1.414-1.414c-0.3427-0.3427-0.8946-0.3427-1.237 0.0001l-0.0003 0.0002c-0.3428 0.3428-0.3428 0.8946-0.0002 1.237"/>
  <path style="fill:#fff" d="m7.86 1046c0.3427 0.3426 0.8946 0.3425 1.237-0.0003l0.0002-0.0002c0.3428-0.3426 0.3428-0.8945 0.0001-1.237l-1.414-1.414c-0.3427-0.3427-0.8946-0.3426-1.237 0.0001l-0.0002 0.0002c-0.3428 0.3428-0.3429 0.8946-0.0002 1.237"/>
 </g>
</svg>
