<?xml version="1.0" encoding="UTF-8" standalone="no"?>
<svg xmlns="http://www.w3.org/2000/svg" height="21.81" width="21" version="1.1" y="0px" x="0px" xmlns:xlink="http://www.w3.org/1999/xlink" viewBox="0 0 20.998502 21.814603">
 <defs>
  <path id="b" d="m72.12 14.58s0.135 33.78-26.4 43.52c-28.75 10.55-13.35 31.27-13.35 31.27s54.36 13.52 59.25-39.52c2.24-24.24-19.51-35.26-19.51-35.26z"/>
 </defs>
 <title>Extra Bold Torch No-Light</title>
 <desc>Created with Sketch.</desc>
 <circle r="9" style="color-rendering:auto;color:#000000;isolation:auto;mix-blend-mode:normal;shape-rendering:auto;solid-color:#000000;image-rendering:auto;fill:#fff" cx="10.5" cy="10.91"/>
 <g style="display:none" transform="translate(-2.747 -59.89)" display="none">
  <g style="stroke-miterlimit:10;display:inline" stroke-miterlimit="10" display="inline">
   <line x2="192" style="stroke-linejoin:round;stroke:#e6e7e8;stroke-width:3;stroke-miterlimit:10" y2="192"/>
   <line x2="0" style="stroke-linejoin:round;stroke:#e6e7e8;stroke-width:3;stroke-miterlimit:10" x1="192" y2="192"/>
   <line style="stroke-linejoin:round;stroke:#e6e7e8;stroke-width:3;stroke-miterlimit:10" y2="96" x2="0" y1="96" x1="192"/>
   <line x2="96" style="stroke-linejoin:round;stroke:#e6e7e8;stroke-width:3;stroke-miterlimit:10" x1="96" y2="192"/>
   <path style="stroke-linejoin:round;stroke:#6d6e71;stroke-width:3;stroke-miterlimit:10" d="m172 159.6c0 6.869-5.568 12.44-12.44 12.44h-127.2c-6.83 0-12.4-5.6-12.4-12.4v-127.2c0-6.83 5.57-12.4 12.44-12.4h127.2c6.8 0 12.4 5.57 12.4 12.44z"/>
   <path style="stroke-linejoin:round;stroke:#6d6e71;stroke-width:3;stroke-miterlimit:10" d="m184 149.5c0 5.8-6.4 10.5-14.4 10.5h-147.2c-7.95 0-14.4-4.7-14.4-10.5v-107c0-5.81 6.45-10.5 14.4-10.5h147.2c7.953 0 14.4 4.688 14.4 10.47z"/>
   <path style="stroke-linejoin:round;stroke:#6d6e71;stroke-width:3;stroke-miterlimit:10" d="m149.5 8c5.8 0 10.5 6.45 10.5 14.4v147.2c0 7.953-4.688 14.4-10.47 14.4h-107c-5.81 0-10.5-6.4-10.5-14.4v-147.2c0.03-7.95 4.72-14.4 10.5-14.4z"/>
   <circle style="stroke-linejoin:round;stroke:#6d6e71;stroke-width:3;stroke-miterlimit:10" cx="96" r="88" cy="96"/>
  </g>
 </g>
 <g style="display:none" transform="translate(-2.747 -59.89)" display="none">
  <g style="stroke-miterlimit:10;display:inline" stroke-miterlimit="10" display="inline">
   <path style="stroke-linejoin:round;stroke:#000;stroke-linecap:round;stroke-miterlimit:10;stroke-width:6;fill:none" d="m105.6 8h-19.19c-6.447 0-5.813 6.182-5.813 6.182v17.82h30.81v-17.82s0.635-6.182-5.812-6.182z"/>
   <path style="stroke-linejoin:round;stroke:#000;stroke-linecap:round;stroke-miterlimit:10;stroke-width:6;fill:none" d="m114.6 44.2c-4-3.72-3.2-12.2-3.2-12.2h-30.82s0.848 8.475-3.221 12.2c-4.07 3.73-21.36 11.87-21.36 31.7v86.62s0.304 21.48 13.48 21.48h53.03c13.18 0 13.49-21.48 13.49-21.48v-86.6c0-19.83-17.29-27.97-21.36-31.7z"/>
   <line style="stroke-linejoin:round;stroke:#000;stroke-linecap:round;stroke-miterlimit:10;stroke-width:6;fill:none" y2="32" x2="117" y1="32" x1="74.96"/>
  </g>
 </g>
 <g transform="matrix(.2369 0 0 .2369 -1.348 -.9031)">
  <clipPath id="a">
   <use xlink:href="#b" height="100%" width="100%" y="0" x="0" overflow="visible"/>
  </clipPath>
  <g clip-path="url(#a)">
   <g>
    <rect transform="matrix(.7069 .7073 -.7073 .7069 26.81 -41.26)" height="97.97" width="1.073" y="-37.27" x="62.65"/>
   </g>
   <g>
    <rect transform="matrix(.7071 .7071 -.7071 .7071 31.34 -39.37)" height="97.97" width="1.072" y="-30.84" x="62.65"/>
   </g>
   <g>
    <rect transform="matrix(.7071 .7071 -.7071 .7071 35.89 -37.48)" height="97.97" width="1.072" y="-24.4" x="62.65"/>
   </g>
   <g>
    <rect transform="matrix(.7071 .7071 -.7071 .7071 40.44 -35.6)" height="97.97" width="1.072" y="-17.97" x="62.65"/>
   </g>
   <g>
    <rect transform="matrix(.7069 .7073 -.7073 .7069 45.02 -33.72)" height="97.97" width="1.073" y="-11.53" x="62.65"/>
   </g>
   <g>
    <rect transform="matrix(.7071 .7071 -.7071 .7071 49.54 -31.83)" height="97.97" width="1.072" y="-5.096" x="62.65"/>
   </g>
   <g>
    <rect transform="matrix(.7071 .7071 -.7071 .7071 54.09 -29.94)" height="97.97" width="1.072" y="1.34" x="62.65"/>
   </g>
   <g>
    <rect transform="matrix(.7071 .7071 -.7071 .7071 58.64 -28.06)" height="97.97" width="1.072" y="7.776" x="62.65"/>
   </g>
   <g>
    <rect transform="matrix(.7071 .7071 -.7071 .7071 63.2 -26.17)" height="97.97" width="1.072" y="14.21" x="62.65"/>
   </g>
   <g>
    <rect transform="rotate(45)" height="97.97" width="1.072" y="-44.43" x="93.38"/>
   </g>
   <g>
    <rect transform="matrix(.7071 .7071 -.7071 .7071 72.3 -22.4)" height="97.97" width="1.072" y="27.08" x="62.65"/>
   </g>
   <g>
    <rect transform="matrix(.7071 .7071 -.7071 .7071 76.85 -20.52)" height="97.97" width="1.072" y="33.52" x="62.65"/>
   </g>
   <g>
    <rect transform="matrix(.7071 .7071 -.7071 .7071 81.4 -18.63)" height="97.97" width="1.072" y="39.95" x="62.65"/>
   </g>
   <g>
    <rect transform="matrix(.7069 .7073 -.7073 .7069 85.98 -16.74)" height="97.97" width="1.073" y="46.39" x="62.65"/>
   </g>
  </g>
 </g>
 <g style="fill:#fff" transform="matrix(.2369 0 0 .2369 -1.348 -.9031)">
  <path d="m50 94.16c-24.44 0-44.32-19.88-44.32-44.32 0.004-24.43 19.88-44.31 44.32-44.31s44.32 19.88 44.32 44.32-19.88 44.32-44.32 44.32zm0-83.27c-21.48 0-38.95 17.47-38.95 38.95s17.47 38.95 38.95 38.95 38.95-17.47 38.95-38.95-17.47-38.95-38.95-38.95z" style="fill:#fff"/>
 </g>
</svg>
