<?xml version="1.0" encoding="UTF-8" standalone="no"?>
<svg xmlns="http://www.w3.org/2000/svg" height="21.81" width="25.2" version="1.1" y="0px" x="0px" viewBox="0 0 25.197416 21.814603">
 <title>Extra Bold Torch No-Light</title>
 <desc>Created with Sketch.</desc>
 <g style="display:none" transform="translate(20.47 -5.777)" display="none">
  <g style="stroke-miterlimit:10;display:inline" stroke-miterlimit="10" display="inline">
   <line style="stroke-linejoin:round;stroke:#e6e7e8;stroke-width:3;stroke-miterlimit:10" y2="192" x2="192"/>
   <line style="stroke-linejoin:round;stroke:#e6e7e8;stroke-width:3;stroke-miterlimit:10" x1="192" x2="0" y2="192"/>
   <line style="stroke-linejoin:round;stroke:#e6e7e8;stroke-width:3;stroke-miterlimit:10" x1="192" y1="96" x2="0" y2="96"/>
   <line style="stroke-linejoin:round;stroke:#e6e7e8;stroke-width:3;stroke-miterlimit:10" x1="96" x2="96" y2="192"/>
   <path style="stroke-linejoin:round;stroke:#6d6e71;stroke-width:3;stroke-miterlimit:10" d="m172 159.6c0 6.869-5.568 12.44-12.44 12.44h-127.2c-6.83 0-12.4-5.6-12.4-12.4v-127.2c0-6.83 5.57-12.4 12.44-12.4h127.2c6.8 0 12.4 5.57 12.4 12.44z"/>
   <path style="stroke-linejoin:round;stroke:#6d6e71;stroke-width:3;stroke-miterlimit:10" d="m184 149.5c0 5.8-6.4 10.5-14.4 10.5h-147.2c-7.95 0-14.4-4.7-14.4-10.5v-107c0-5.81 6.45-10.5 14.4-10.5h147.2c7.953 0 14.4 4.688 14.4 10.47z"/>
   <path style="stroke-linejoin:round;stroke:#6d6e71;stroke-width:3;stroke-miterlimit:10" d="m149.5 8c5.8 0 10.5 6.45 10.5 14.4v147.2c0 7.953-4.688 14.4-10.47 14.4h-107c-5.81 0-10.5-6.4-10.5-14.4v-147.2c0.03-7.95 4.72-14.4 10.5-14.4z"/>
   <circle style="stroke-linejoin:round;stroke:#6d6e71;stroke-width:3;stroke-miterlimit:10" cx="96" r="88" cy="96"/>
  </g>
 </g>
 <g style="display:none" transform="translate(20.47 -5.777)" display="none">
  <g style="stroke-miterlimit:10;display:inline" stroke-miterlimit="10" display="inline">
   <path style="stroke-linejoin:round;stroke:#000;stroke-linecap:round;stroke-miterlimit:10;stroke-width:6;fill:none" d="m105.6 8h-19.19c-6.447 0-5.813 6.182-5.813 6.182v17.82h30.81v-17.82s0.635-6.182-5.812-6.182z"/>
   <path style="stroke-linejoin:round;stroke:#000;stroke-linecap:round;stroke-miterlimit:10;stroke-width:6;fill:none" d="m114.6 44.2c-4-3.72-3.2-12.2-3.2-12.2h-30.82s0.848 8.475-3.221 12.2c-4.07 3.73-21.36 11.87-21.36 31.7v86.62s0.304 21.48 13.48 21.48h53.03c13.18 0 13.49-21.48 13.49-21.48v-86.6c0-19.83-17.29-27.97-21.36-31.7z"/>
   <line style="stroke-linejoin:round;stroke:#000;stroke-linecap:round;stroke-miterlimit:10;stroke-width:6;fill:none" x1="74.96" y1="32" x2="117" y2="32"/>
  </g>
 </g>
 <g style="fill:#fff" transform="matrix(.04923 0 0 .04923 -.009781 -1.695)">
  <path style="fill:#fff" d="m283.9 371.5c-3.859 1.609-6.562 5.422-6.562 9.859 0 5.875 4.766 10.66 10.67 10.66 1.484 0 2.906-0.312 4.188-0.859l138.1-57.55c3.859-1.609 6.562-5.406 6.562-9.844 0-5.906-4.781-10.69-10.66-10.69-1.5 0-2.906 0.312-4.188 0.875z"/>
  <path style="fill:#fff" d="m283.9 307.5c-3.859 1.609-6.562 5.422-6.562 9.859 0 5.875 4.766 10.66 10.67 10.66 1.484 0 2.906-0.312 4.188-0.859l99.72-41.55c3.875-1.625 6.578-5.406 6.578-9.844 0-5.898-4.781-10.68-10.67-10.68-1.484 0-2.906 0.312-4.188 0.859z"/>
  <path style="fill:#fff" d="m283.9 243.5c-3.859 1.609-6.562 5.414-6.562 9.852 0 5.891 4.766 10.66 10.67 10.66 1.5 0 2.938-0.312 4.25-0.883l61.27-25.53c3.859-1.602 6.562-5.406 6.562-9.844 0-5.891-4.766-10.67-10.67-10.67-1.484 0-2.906 0.312-4.188 0.859z"/>
  <path style="fill:#fff" d="m288 200c1.484 0 2.906-0.305 4.188-0.859l22.94-9.555c3.844-1.609 6.562-5.406 6.562-9.844 0-5.891-4.781-10.67-10.67-10.67-1.484 0-2.906 0.312-4.203 0.859l-22.92 9.555c-3.859 1.609-6.562 5.414-6.562 9.852 0 5.9 4.8 10.7 10.7 10.7z"/>
  <path style="fill:#fff" d="m158.5 237.6l61.28 25.53c1.297 0.57 2.734 0.883 4.25 0.883 5.875 0 10.66-4.773 10.66-10.66 0-4.438-2.719-8.242-6.562-9.852l-61.33-25.56c-1.297-0.547-2.703-0.859-4.203-0.859-5.875 0-10.66 4.781-10.66 10.67-0.001 4.438 2.718 8.235 6.562 9.844z"/>
  <path style="fill:#fff" d="m196.9 189.6 22.94 9.555c0.031 0.016 0.047 0.023 0.078 0.039 1.266 0.523 2.641 0.82 4.109 0.82 5.875 0 10.66-4.773 10.66-10.66 0-4.438-2.719-8.242-6.562-9.852l-22.94-9.555c-1.281-0.547-2.688-0.859-4.188-0.859-5.891 0-10.66 4.781-10.66 10.67 0 4.438 2.704 8.242 6.563 9.844z"/>
  <path style="fill:#fff" d="m228.1 307.5-99.72-41.56c-1.297-0.547-2.719-0.859-4.203-0.859-5.891 0-10.67 4.781-10.67 10.68 0 4.438 2.719 8.219 6.562 9.844l99.73 41.55c1.298 0.547 2.704 0.859 4.204 0.859 5.875 0 10.66-4.781 10.66-10.66 0-4.438-2.718-8.25-6.562-9.86z"/>
  <path style="fill:#fff" d="m228.1 371.5-138.1-57.6c-1.281-0.562-2.719-0.875-4.188-0.875-5.906 0-10.69 4.781-10.69 10.69 0 4.438 2.719 8.219 6.578 9.844l138.1 57.55c1.298 0.546 2.704 0.858 4.204 0.858 5.875 0 10.66-4.781 10.66-10.66 0-4.438-2.718-8.25-6.562-9.86z"/>
  <path style="fill:#fff" d="m256 42.66-256 320 256 106.6 256-106.6zm221.6 311.2-210.9 87.9v-351.6zm-232.3-263.8v351.6l-211-87.9z"/>
 </g>
</svg>
