<?xml version="1.0" encoding="UTF-8" standalone="no"?>
<svg xmlns="http://www.w3.org/2000/svg" height="21.81" width="15.4" version="1.1" y="0px" x="0px" viewBox="0 0 15.398946 21.814603">
 <title>Extra Bold Torch No-Light</title>
 <desc>Created with Sketch.</desc>
 <g style="display:none" transform="translate(-12.89 -47.12)" display="none">
  <g style="stroke-miterlimit:10;display:inline" stroke-miterlimit="10" display="inline">
   <line style="stroke-linejoin:round;stroke:#e6e7e8;stroke-width:3;stroke-miterlimit:10" y2="192" x2="192"/>
   <line style="stroke-linejoin:round;stroke:#e6e7e8;stroke-width:3;stroke-miterlimit:10" x1="192" x2="0" y2="192"/>
   <line style="stroke-linejoin:round;stroke:#e6e7e8;stroke-width:3;stroke-miterlimit:10" x1="192" y1="96" x2="0" y2="96"/>
   <line style="stroke-linejoin:round;stroke:#e6e7e8;stroke-width:3;stroke-miterlimit:10" x1="96" x2="96" y2="192"/>
   <path style="stroke-linejoin:round;stroke:#6d6e71;stroke-width:3;stroke-miterlimit:10" d="m172 159.6c0 6.869-5.568 12.44-12.44 12.44h-127.2c-6.83 0-12.4-5.6-12.4-12.4v-127.2c0-6.83 5.57-12.4 12.44-12.4h127.2c6.8 0 12.4 5.57 12.4 12.44z"/>
   <path style="stroke-linejoin:round;stroke:#6d6e71;stroke-width:3;stroke-miterlimit:10" d="m184 149.5c0 5.8-6.4 10.5-14.4 10.5h-147.2c-7.95 0-14.4-4.7-14.4-10.5v-107c0-5.81 6.45-10.5 14.4-10.5h147.2c7.953 0 14.4 4.688 14.4 10.47z"/>
   <path style="stroke-linejoin:round;stroke:#6d6e71;stroke-width:3;stroke-miterlimit:10" d="m149.5 8c5.8 0 10.5 6.45 10.5 14.4v147.2c0 7.953-4.688 14.4-10.47 14.4h-107c-5.81 0-10.5-6.4-10.5-14.4v-147.2c0.03-7.95 4.72-14.4 10.5-14.4z"/>
   <circle style="stroke-linejoin:round;stroke:#6d6e71;stroke-width:3;stroke-miterlimit:10" cx="96" r="88" cy="96"/>
  </g>
 </g>
 <g style="display:none" transform="translate(-12.89 -47.12)" display="none">
  <g style="stroke-miterlimit:10;display:inline" stroke-miterlimit="10" display="inline">
   <path style="stroke-linejoin:round;stroke:#000;stroke-linecap:round;stroke-miterlimit:10;stroke-width:6;fill:none" d="m105.6 8h-19.19c-6.447 0-5.813 6.182-5.813 6.182v17.82h30.81v-17.82s0.635-6.182-5.812-6.182z"/>
   <path style="stroke-linejoin:round;stroke:#000;stroke-linecap:round;stroke-miterlimit:10;stroke-width:6;fill:none" d="m114.6 44.2c-4-3.72-3.2-12.2-3.2-12.2h-30.82s0.848 8.475-3.221 12.2c-4.07 3.73-21.36 11.87-21.36 31.7v86.62s0.304 21.48 13.48 21.48h53.03c13.18 0 13.49-21.48 13.49-21.48v-86.6c0-19.83-17.29-27.97-21.36-31.7z"/>
   <line style="stroke-linejoin:round;stroke:#000;stroke-linecap:round;stroke-miterlimit:10;stroke-width:6;fill:none" x1="74.96" y1="32" x2="117" y2="32"/>
  </g>
 </g>
 <g style="fill:#fff" transform="matrix(.2334 0 0 .2334 -3.97 -.7618)">
  <path style="fill:#fff" d="m76.83 28.04c-9.62-22.78-26.13-23.04-26.83-23.04s-17.21 0.262-26.83 23.04c-6.7 15.88-9.59 39.55-0.09 54.02 5.65 8.59 14.7 12.94 26.92 12.94s21.27-4.35 26.92-12.94c9.5-14.47 6.61-38.14-0.09-54.02zm-47.97 35.72c-0.708-2.608-1.043-5.547-0.994-8.733l3.886 0.059c-0.042 2.819 0.246 5.391 0.858 7.643zm3.256-13.51-3.854-0.51c1.717-13.15 4.789-19.38 9.86-26.27l3.122 2.33c-4.788 6.505-7.513 12.07-9.128 24.45z"/>
 </g>
</svg>
