<?xml version="1.0" encoding="UTF-8" standalone="no"?>
<svg xmlns="http://www.w3.org/2000/svg" height="22.81" width="18.6" version="1.1" y="0px" x="0px" viewBox="0 0 18.598667 22.814816">
 <title>Extra Bold Torch No-Light</title>
 <desc>Created with Sketch.</desc>
 <g style="display:none" transform="translate(-70.4 -109.1)" display="none">
  <g style="stroke-miterlimit:10;display:inline" stroke-miterlimit="10" display="inline">
   <line style="stroke-linejoin:round;stroke:#e6e7e8;stroke-width:3;stroke-miterlimit:10" y2="192" x2="192"/>
   <line style="stroke-linejoin:round;stroke:#e6e7e8;stroke-width:3;stroke-miterlimit:10" x1="192" x2="0" y2="192"/>
   <line style="stroke-linejoin:round;stroke:#e6e7e8;stroke-width:3;stroke-miterlimit:10" x1="192" y1="96" x2="0" y2="96"/>
   <line style="stroke-linejoin:round;stroke:#e6e7e8;stroke-width:3;stroke-miterlimit:10" x1="96" x2="96" y2="192"/>
   <path style="stroke-linejoin:round;stroke:#6d6e71;stroke-width:3;stroke-miterlimit:10" d="m172 159.6c0 6.869-5.568 12.44-12.44 12.44h-127.2c-6.83 0-12.4-5.6-12.4-12.4v-127.2c0-6.83 5.57-12.4 12.44-12.4h127.2c6.8 0 12.4 5.57 12.4 12.44z"/>
   <path style="stroke-linejoin:round;stroke:#6d6e71;stroke-width:3;stroke-miterlimit:10" d="m184 149.5c0 5.8-6.4 10.5-14.4 10.5h-147.2c-7.95 0-14.4-4.7-14.4-10.5v-107c0-5.81 6.45-10.5 14.4-10.5h147.2c7.953 0 14.4 4.688 14.4 10.47z"/>
   <path style="stroke-linejoin:round;stroke:#6d6e71;stroke-width:3;stroke-miterlimit:10" d="m149.5 8c5.8 0 10.5 6.45 10.5 14.4v147.2c0 7.953-4.688 14.4-10.47 14.4h-107c-5.81 0-10.5-6.4-10.5-14.4v-147.2c0.03-7.95 4.72-14.4 10.5-14.4z"/>
   <circle style="stroke-linejoin:round;stroke:#6d6e71;stroke-width:3;stroke-miterlimit:10" cx="96" r="88" cy="96"/>
  </g>
 </g>
 <g style="display:none" transform="translate(-70.4 -109.1)" display="none">
  <g style="stroke-miterlimit:10;display:inline" stroke-miterlimit="10" display="inline">
   <path style="stroke-linejoin:round;stroke:#000;stroke-linecap:round;stroke-miterlimit:10;stroke-width:6;fill:none" d="m105.6 8h-19.19c-6.447 0-5.813 6.182-5.813 6.182v17.82h30.81v-17.82s0.635-6.182-5.812-6.182z"/>
   <path style="stroke-linejoin:round;stroke:#000;stroke-linecap:round;stroke-miterlimit:10;stroke-width:6;fill:none" d="m114.6 44.2c-4-3.72-3.2-12.2-3.2-12.2h-30.82s0.848 8.475-3.221 12.2c-4.07 3.73-21.36 11.87-21.36 31.7v86.62s0.304 21.48 13.48 21.48h53.03c13.18 0 13.49-21.48 13.49-21.48v-86.6c0-19.83-17.29-27.97-21.36-31.7z"/>
   <line style="stroke-linejoin:round;stroke:#000;stroke-linecap:round;stroke-miterlimit:10;stroke-width:6;fill:none" x1="74.96" y1="32" x2="117" y2="32"/>
  </g>
 </g>
 <path d="m17.86 17.99h-0.3v-9.358c0-4.307-3.313-7.852-7.524-8.227l-1.475 0.0004921c-4.215 0.3745-7.528 3.92-7.528 8.226v9.358h-0.3026c-0.4073 0-0.7375 0.3301-0.7375 0.7375v2.948c0 0.4073 0.3301 0.7375 0.7375 0.7375h17.13c0.4071 0 0.7375-0.3301 0.7375-0.7375v-2.96c0-0.4-0.33-0.73-0.74-0.73zm-8.562-16.14c0.7903 0 1.549 0.1372 2.255 0.3867v6.372h-4.507v-6.372c0.706-0.249 1.465-0.387 2.255-0.387zm2.252 8.235v7.91h-4.507v-7.907zm1.475 7.907v-7.907h3.057v7.91zm3.06-9.386h-3.05v-5.638c1.832 1.21 3.047 3.284 3.056 5.637zm-10.51-5.638v5.637h-3.056c0.0096-2.353 1.224-4.427 3.056-5.637zm-3.057 7.112h3.057v7.907h-3.057z" style="stroke-width:.2458;fill:#fff"/>
</svg>
