<?xml version="1.0" encoding="UTF-8" standalone="no"?>
<svg xmlns="http://www.w3.org/2000/svg" height="22.81" width="46.67" version="1.1" y="0px" x="0px" viewBox="0 0 46.666668 22.814816">
 <title>Extra Bold Torch No-Light</title>
 <desc>Created with Sketch.</desc>
 <path style="stroke-width:.7274;fill:#fff" d="m44.06 6.679c-0.1542 0-0.3011-0.00291-0.4393-0.00582-0.1324-0.00291-0.2568-0.00509-0.3731-0.00509-0.09892 0-0.1884 0.008-0.2793 0.01528v-0.731c0-2.407-1.957-4.364-4.364-4.364h-34.19c-2.407 0-4.364 1.957-4.364 4.364v10.91c0 2.407 1.957 4.364 4.364 4.364h34.19c2.407 0 4.364-1.957 4.364-4.364v-0.0036c0.09092 0.0073 0.1797 0.01528 0.2793 0.01528 0.1164 0 0.2408-0.0029 0.3731-0.0051 0.1375-0.0036 0.2844-0.0065 0.4386-0.0065 1.451 0 2.546-0.9383 2.546-2.182v-5.818c0-1.244-1.095-2.182-2.546-2.182z"/>
</svg>
