<?xml version="1.0" encoding="UTF-8" standalone="no"?>
<svg xmlns="http://www.w3.org/2000/svg" height="21.81" width="69.27" version="1.1" y="0px" x="0px" viewBox="0 0 69.26263 21.814603">
 <title>Extra Bold Torch No-Light</title>
 <desc>Created with Sketch.</desc>
 <g style="display:none" transform="translate(38.22 -37.6)" display="none">
  <g style="stroke-miterlimit:10;display:inline" stroke-miterlimit="10" display="inline">
   <line x2="192" style="stroke-linejoin:round;stroke:#e6e7e8;stroke-width:3;stroke-miterlimit:10" y2="192"/>
   <line x2="0" style="stroke-linejoin:round;stroke:#e6e7e8;stroke-width:3;stroke-miterlimit:10" x1="192" y2="192"/>
   <line style="stroke-linejoin:round;stroke:#e6e7e8;stroke-width:3;stroke-miterlimit:10" y2="96" x2="0" y1="96" x1="192"/>
   <line x2="96" style="stroke-linejoin:round;stroke:#e6e7e8;stroke-width:3;stroke-miterlimit:10" x1="96" y2="192"/>
   <path style="stroke-linejoin:round;stroke:#6d6e71;stroke-width:3;stroke-miterlimit:10" d="m172 159.6c0 6.869-5.568 12.44-12.44 12.44h-127.2c-6.83 0-12.4-5.6-12.4-12.4v-127.2c0-6.83 5.57-12.4 12.44-12.4h127.2c6.8 0 12.4 5.57 12.4 12.44z"/>
   <path style="stroke-linejoin:round;stroke:#6d6e71;stroke-width:3;stroke-miterlimit:10" d="m184 149.5c0 5.8-6.4 10.5-14.4 10.5h-147.2c-7.95 0-14.4-4.7-14.4-10.5v-107c0-5.81 6.45-10.5 14.4-10.5h147.2c7.953 0 14.4 4.688 14.4 10.47z"/>
   <path style="stroke-linejoin:round;stroke:#6d6e71;stroke-width:3;stroke-miterlimit:10" d="m149.5 8c5.8 0 10.5 6.45 10.5 14.4v147.2c0 7.953-4.688 14.4-10.47 14.4h-107c-5.81 0-10.5-6.4-10.5-14.4v-147.2c0.03-7.95 4.72-14.4 10.5-14.4z"/>
   <circle style="stroke-linejoin:round;stroke:#6d6e71;stroke-width:3;stroke-miterlimit:10" cx="96" r="88" cy="96"/>
  </g>
 </g>
 <g style="display:none" transform="translate(38.22 -37.6)" display="none">
  <g style="stroke-miterlimit:10;display:inline" stroke-miterlimit="10" display="inline">
   <path style="stroke-linejoin:round;stroke:#000;stroke-linecap:round;stroke-miterlimit:10;stroke-width:6;fill:none" d="m105.6 8h-19.19c-6.447 0-5.813 6.182-5.813 6.182v17.82h30.81v-17.82s0.635-6.182-5.812-6.182z"/>
   <path style="stroke-linejoin:round;stroke:#000;stroke-linecap:round;stroke-miterlimit:10;stroke-width:6;fill:none" d="m114.6 44.2c-4-3.72-3.2-12.2-3.2-12.2h-30.82s0.848 8.475-3.221 12.2c-4.07 3.73-21.36 11.87-21.36 31.7v86.62s0.304 21.48 13.48 21.48h53.03c13.18 0 13.49-21.48 13.49-21.48v-86.6c0-19.83-17.29-27.97-21.36-31.7z"/>
   <line style="stroke-linejoin:round;stroke:#000;stroke-linecap:round;stroke-miterlimit:10;stroke-width:6;fill:none" y2="32" x2="117" y1="32" x1="74.96"/>
  </g>
 </g>
 <g style="fill:#fff" transform="matrix(.05866 0 0 .05866 -6.883 -23.22)">
  <path style="fill:#fff" d="m241.1 495.2c-13.67 0-24.76 11.09-24.76 24.76v11.65h73.79v6.796h23.05v-6.796h69.26v-11.65c0-13.67-11.08-24.76-24.92-24.76h-116.4zm-107.4 43.29c-9.071 0-16.42 7.394-16.42 16.42v53.8c0 9.113 7.394 16.42 16.42 16.42h149.6v-86.65zm186.3 0v86.73h166v-86.73zm-29.7 86.65v6.877h-73.79v11.65c0 13.67 11.09 24.76 24.76 24.76h116.3c13.84 0 24.92-11.09 24.92-24.76v-11.65h-69.26v-6.877z"/>
 </g>
 <g style="fill:#fff" transform="matrix(.05866 0 0 .05866 28.95 -23.22)">
  <path style="fill:#fff" d="m241.1 495.2c-13.67 0-24.76 11.09-24.76 24.76v11.65h73.79v6.796h23.05v-6.796h69.26v-11.65c0-13.67-11.08-24.76-24.92-24.76h-116.4zm204.7 0c-13.71 0-24.76 11.09-24.76 24.76v11.65h71.77v6.796h22.97v-6.796h71.28v-11.65c0-13.67-11.13-24.76-24.92-24.76h-116.4zm-125.8 43.3v86.73h166v-86.73zm202.7 0v86.73h149.6c9.113 0 16.42-7.352 16.42-16.42v-53.8c0-9.114-7.352-16.51-16.42-16.51zm-232.4 86.65v6.877h-73.79v11.65c0 13.67 11.09 24.76 24.76 24.76h116.3c13.84 0 24.92-11.09 24.92-24.76v-11.65h-69.26v-6.877zm202.7 0v6.877h-71.85v11.65c0 13.67 11.13 24.76 24.84 24.76h116.3c13.79 0 24.92-11.09 24.92-24.76v-11.65h-71.28v-6.877h-22.97z"/>
 </g>
 <g style="fill:#fff" transform="matrix(.05866 0 0 .05866 5.013 -23.22)">
  <path d="m241.1 495.2c-13.67 0-24.76 11.09-24.76 24.76v11.65h73.79v6.796h23.05v-6.796h69.26v-11.65c0-13.67-11.08-24.76-24.92-24.76h-116.4zm78.9 43.29v86.73h166v-86.73zm-29.7 86.65v6.877h-73.79v11.65c0 13.67 11.09 24.76 24.76 24.76h116.3c13.84 0 24.92-11.09 24.92-24.76v-11.65h-69.26v-6.877z" style="fill:#fff"/>
  <path style="fill:#fff" d="m442.4 495.2c-13.67 0-24.76 11.09-24.76 24.76v11.65h73.79v6.796h23.05v-6.796h69.26v-11.65c0-13.67-11.08-24.76-24.92-24.76h-116.4zm78.9 43.29v86.73h166v-86.73zm-29.7 86.65v6.877h-73.79v11.65c0 13.67 11.09 24.76 24.76 24.76h116.3c13.84 0 24.92-11.09 24.92-24.76v-11.65h-69.26v-6.877z"/>
 </g>
</svg>
